<svg xmlns="http://www.w3.org/2000/svg" width="1260" height="1250" viewBox="0 0 1260 1250"><rect x="0" y="0" width="1260" height="1250" rx="0" fill="#E8EEF0" stroke="none" stroke-width="1"/><text x="36" y="47" font-family="Avenir Next Condensed" font-size="32" font-weight="700" fill="#132532" >Attachment titles stay with their hosts</text><text x="36" y="76" font-family="Avenir Next" font-size="14" font-weight="400" fill="#132532" >Synthetic placement and counters. Printed rules are reachable inline; no scrolling modal.</text><text x="36" y="126" font-family="Avenir Next Condensed" font-size="24" font-weight="700" fill="#132532" >Nick Fury</text><g transform="translate(36 148)"><g><rect x="0" y="0" width="172" height="240" rx="3" fill="#FFFFFF" stroke="#132532" stroke-width="1"/><path d="M0 0H172V119L0 127Z" fill="#132532" stroke="none" stroke-width="1" /><path d="M43 57L172 28V100L81 120Z" fill="#486C7D" stroke="none" stroke-width="1" /><rect x="0" y="0" width="5" height="240" rx="0" fill="#486C7D" stroke="none" stroke-width="1"/><g transform="translate(98 44) scale(0.6166666666666667 0.54)"><path d="M37 15Q48 3 65 5Q82 8 86 23L82 44L73 60L65 65L66 72L96 81L114 99H6L20 81L45 72L46 62L35 51L31 30Z" fill="#FFFFFF" stroke="none" stroke-width="1" /><path d="M34 25L82 38" fill="none" stroke="#486C7D" stroke-width="3" /><path d="M58 28L78 31L75 45L59 43ZM40 33L51 33L50 37L41 37ZM55 45L51 51L60 52M55 59L67 57M45 73L59 89L68 73L75 82L64 99H50L34 82Z" fill="#486C7D" stroke="none" stroke-width="1" /><path d="M23 81L35 91L26 98M90 82L79 93L86 99M51 56L62 57L69 53M36 28L49 31" fill="none" stroke="#486C7D" stroke-width="2" /></g><path d="M5 95H172V120L5 128Z" fill="#132532" stroke="none" stroke-width="1" /><g transform="translate(12 103) scale(0.55)"><path d="M3 3H16V12H3ZM5 6H13M5 9H10M12 15L18 20M16 14A4 4 0 1 0 8 14A4 4 0 1 0 16 14" fill="none" stroke="#FFFFFF" stroke-width="1.65" stroke-linecap="round" stroke-linejoin="round"/></g><text x="27" y="114" font-family="Avenir Next" font-size="16" font-weight="600" fill="#FFFFFF" >3</text><rect x="26" y="115.5" width="11.76" height="1.5" rx="0" fill="#E8C877" stroke="none" stroke-width="1"/><svg xmlns="http://www.w3.org/2000/svg" x="28.88" y="119" width="6" height="6" viewBox="14.0 -741.0 972.0 882.0"><path fill="#FFFFFF" transform="scale(1,-1)" d="M770.0 312.0 Q783.0 262.0 812.0 219.0 Q843.0 175.0 873.0 142.0 Q910.0 104.0 950.0 71.0 Q891.0 93.0 833.0 104.0 Q808.0 108.0 782.0 111.0 Q755.0 114.0 728.5 114.0 Q702.0 114.0 676.0 110.0 Q650.0 106.0 628.0 97.0 Q612.0 90.0 597.5 78.0 Q583.0 66.0 570.0 50.5 Q557.0 35.0 545.0 18.0 Q533.0 1.0 524.0 -17.0 Q501.0 -58.0 483.0 -105.0 Q471.0 -65.0 455.0 -28.0 Q441.0 4.0 419.0 42.0 Q397.0 79.0 366.0 111.0 Q351.0 125.0 329.0 138.0 Q307.0 151.0 282.0 161.0 Q256.0 172.0 230.0 180.0 Q201.0 188.0 178.0 194.0 Q118.0 208.0 50.0 217.0 Q98.0 239.0 145.0 269.0 Q185.0 295.0 227.0 329.5 Q269.0 364.0 299.0 405.0 Q328.0 448.0 344.0 500.0 Q359.0 551.0 366.0 598.0 Q374.0 652.0 374.0 705.0 Q407.0 665.0 441.0 631.0 Q455.0 616.0 472.0 602.0 Q488.0 587.0 505.0 574.5 Q522.0 562.0 540.0 552.0 Q558.0 542.0 575.0 537.0 Q598.0 530.0 624.0 531.0 Q651.0 533.0 679.0 540.0 Q708.0 546.0 735.0 557.0 Q765.0 569.0 790.0 581.0 Q852.0 610.0 913.0 652.0 Q863.0 591.0 828.0 531.0 Q812.0 506.0 798.5 477.5 Q785.0 449.0 777.0 421.0 Q768.0 393.0 765.5 365.0 Q763.0 337.0 770.0 312.0 Z M584.0 199.0 Q608.0 209.0 634.0 213.0 Q660.0 218.0 687.0 219.0 Q678.0 238.0 672.0 253.0 Q664.0 271.0 658.0 289.0 Q650.0 322.0 653.0 355.0 Q656.0 389.0 667.0 423.0 Q601.0 406.0 550.0 423.0 Q536.0 427.0 519.0 434.0 Q503.0 441.0 488.0 451.0 Q480.0 456.0 473.0 460.0 Q466.0 465.0 460.0 472.0 Q452.0 438.0 438.0 404.5 Q424.0 371.0 402.0 342.0 Q386.0 319.0 367.0 300.0 Q348.0 281.0 327.0 263.0 Q350.0 256.0 373.0 246.0 Q396.0 236.0 413.0 223.0 Q422.0 217.0 433.0 209.0 Q444.0 202.0 451.0 195.0 Q465.0 180.0 478.5 164.0 Q492.0 148.0 501.0 130.0 Q521.0 155.0 541.0 172.0 Q561.0 190.0 584.0 199.0 Z "/></svg><g transform="translate(51 103) scale(0.55)"><path d="M5 18L17 6L18 1L13 2L2 13M4 11L10 17M2 19L5 16" fill="none" stroke="#FFFFFF" stroke-width="1.65" stroke-linecap="round" stroke-linejoin="round"/></g><text x="66" y="114" font-family="Avenir Next" font-size="16" font-weight="600" fill="#FFFFFF" >3</text><rect x="65" y="115.5" width="11.76" height="1.5" rx="0" fill="#E8C877" stroke="none" stroke-width="1"/><svg xmlns="http://www.w3.org/2000/svg" x="67.88" y="119" width="6" height="6" viewBox="14.0 -741.0 972.0 882.0"><path fill="#FFFFFF" transform="scale(1,-1)" d="M770.0 312.0 Q783.0 262.0 812.0 219.0 Q843.0 175.0 873.0 142.0 Q910.0 104.0 950.0 71.0 Q891.0 93.0 833.0 104.0 Q808.0 108.0 782.0 111.0 Q755.0 114.0 728.5 114.0 Q702.0 114.0 676.0 110.0 Q650.0 106.0 628.0 97.0 Q612.0 90.0 597.5 78.0 Q583.0 66.0 570.0 50.5 Q557.0 35.0 545.0 18.0 Q533.0 1.0 524.0 -17.0 Q501.0 -58.0 483.0 -105.0 Q471.0 -65.0 455.0 -28.0 Q441.0 4.0 419.0 42.0 Q397.0 79.0 366.0 111.0 Q351.0 125.0 329.0 138.0 Q307.0 151.0 282.0 161.0 Q256.0 172.0 230.0 180.0 Q201.0 188.0 178.0 194.0 Q118.0 208.0 50.0 217.0 Q98.0 239.0 145.0 269.0 Q185.0 295.0 227.0 329.5 Q269.0 364.0 299.0 405.0 Q328.0 448.0 344.0 500.0 Q359.0 551.0 366.0 598.0 Q374.0 652.0 374.0 705.0 Q407.0 665.0 441.0 631.0 Q455.0 616.0 472.0 602.0 Q488.0 587.0 505.0 574.5 Q522.0 562.0 540.0 552.0 Q558.0 542.0 575.0 537.0 Q598.0 530.0 624.0 531.0 Q651.0 533.0 679.0 540.0 Q708.0 546.0 735.0 557.0 Q765.0 569.0 790.0 581.0 Q852.0 610.0 913.0 652.0 Q863.0 591.0 828.0 531.0 Q812.0 506.0 798.5 477.5 Q785.0 449.0 777.0 421.0 Q768.0 393.0 765.5 365.0 Q763.0 337.0 770.0 312.0 Z M584.0 199.0 Q608.0 209.0 634.0 213.0 Q660.0 218.0 687.0 219.0 Q678.0 238.0 672.0 253.0 Q664.0 271.0 658.0 289.0 Q650.0 322.0 653.0 355.0 Q656.0 389.0 667.0 423.0 Q601.0 406.0 550.0 423.0 Q536.0 427.0 519.0 434.0 Q503.0 441.0 488.0 451.0 Q480.0 456.0 473.0 460.0 Q466.0 465.0 460.0 472.0 Q452.0 438.0 438.0 404.5 Q424.0 371.0 402.0 342.0 Q386.0 319.0 367.0 300.0 Q348.0 281.0 327.0 263.0 Q350.0 256.0 373.0 246.0 Q396.0 236.0 413.0 223.0 Q422.0 217.0 433.0 209.0 Q444.0 202.0 451.0 195.0 Q465.0 180.0 478.5 164.0 Q492.0 148.0 501.0 130.0 Q521.0 155.0 541.0 172.0 Q561.0 190.0 584.0 199.0 Z "/></svg><path d="M8 8H35V29L29 35H8Z" fill="#486C7D" stroke="none" stroke-width="1" /><text x="21.5" y="29" font-family="Avenir Next" font-size="23" font-weight="600" fill="#FFFFFF" text-anchor="middle">4</text><svg xmlns="http://www.w3.org/2000/svg" x="39" y="14" width="7" height="7" viewBox="19.12 -781.88 559.76 806.76"><path fill="#FFFFFF" transform="scale(1,-1)" d="M299.0 5.0 L234.0 304.0 L49.0 378.0 L234.0 453.0 L299.0 752.0 L364.0 453.0 L549.0 378.0 L364.0 304.0 Z "/></svg><text x="49" y="23" font-family="Avenir Next Condensed" font-size="17" font-weight="700" fill="#FFFFFF" >Nick Fury</text><text x="49" y="37" font-family="Avenir Next" font-size="8" font-weight="500" fill="#FFFFFF" >Ally</text><g transform="translate(11 45) scale(0.6)"><path d="M18 10A8 8 0 1 1 2 10A8 8 0 1 1 18 10M11 10A1 1 0 1 1 9 10A1 1 0 1 1 11 10" fill="none" stroke="#FFFFFF" stroke-width="1.65" stroke-linecap="round" stroke-linejoin="round"/></g><text x="163" y="134" font-family="Avenir Next" font-size="7.5" font-weight="600" fill="#486C7D" text-anchor="end">S.H.I.E.L.D · Spy</text><text x="9" y="146.0" font-family="Avenir Next" font-size="9.3" font-weight="600" fill="#132532" font-style="normal">Forced</text><text x="41.48490000000001" y="146.0" font-family="Avenir Next" font-size="9.3" font-weight="600" fill="#132532" font-style="normal">Response</text><text x="83.24190000000002" y="146.0" font-family="Avenir Next" font-size="9.3" font-weight="400" fill="#132532" font-style="normal">:</text><text x="88.35690000000002" y="146.0" font-family="Avenir Next" font-size="9.3" font-weight="400" fill="#132532" font-style="normal">After</text><text x="111.55110000000003" y="146.0" font-family="Avenir Next" font-size="9.3" font-weight="400" fill="#132532" font-style="normal">Nick</text><text x="132.69930000000002" y="146.0" font-family="Avenir Next" font-size="9.3" font-weight="400" fill="#132532" font-style="normal">Fury</text><text x="9" y="156.7" font-family="Avenir Next" font-size="9.3" font-weight="400" fill="#132532" font-style="normal">enters</text><text x="37.79280000000001" y="156.7" font-family="Avenir Next" font-size="9.3" font-weight="400" fill="#132532" font-style="normal">play,</text><text x="60.28950000000001" y="156.7" font-family="Avenir Next" font-size="9.3" font-weight="400" fill="#132532" font-style="normal">choose</text><text x="93.49980000000002" y="156.7" font-family="Avenir Next" font-size="9.3" font-weight="400" fill="#132532" font-style="normal">one:</text><text x="115.02000000000002" y="156.7" font-family="Avenir Next" font-size="9.3" font-weight="400" fill="#132532" font-style="normal">remove</text><text x="149.7648" y="156.7" font-family="Avenir Next" font-size="9.3" font-weight="400" fill="#132532" font-style="normal">2</text><text x="9" y="167.4" font-family="Avenir Next" font-size="9.3" font-weight="400" fill="#132532" font-style="normal">threat</text><text x="36.27690000000001" y="167.4" font-family="Avenir Next" font-size="9.3" font-weight="400" fill="#132532" font-style="normal">from</text><text x="58.587600000000016" y="167.4" font-family="Avenir Next" font-size="9.3" font-weight="400" fill="#132532" font-style="normal">a</text><text x="65.87880000000001" y="167.4" font-family="Avenir Next" font-size="9.3" font-weight="400" fill="#132532" font-style="normal">scheme,</text><text x="103.67400000000002" y="167.4" font-family="Avenir Next" font-size="9.3" font-weight="400" fill="#132532" font-style="normal">draw</text><text x="127.17510000000003" y="167.4" font-family="Avenir Next" font-size="9.3" font-weight="400" fill="#132532" font-style="normal">3</text><text x="134.8941" y="167.4" font-family="Avenir Next" font-size="9.3" font-weight="400" fill="#132532" font-style="normal">cards,</text><text x="9" y="178.1" font-family="Avenir Next" font-size="9.3" font-weight="400" fill="#132532" font-style="normal">or</text><text x="20.3553" y="178.1" font-family="Avenir Next" font-size="9.3" font-weight="400" fill="#132532" font-style="normal">deal</text><text x="41.2338" y="178.1" font-family="Avenir Next" font-size="9.3" font-weight="400" fill="#132532" font-style="normal">4</text><text x="48.9528" y="178.1" font-family="Avenir Next" font-size="9.3" font-weight="400" fill="#132532" font-style="normal">damage</text><text x="86.5434" y="178.1" font-family="Avenir Next" font-size="9.3" font-weight="400" fill="#132532" font-style="normal">to</text><text x="97.4988" y="178.1" font-family="Avenir Next" font-size="9.3" font-weight="400" fill="#132532" font-style="normal">an</text><text x="110.19330000000001" y="178.1" font-family="Avenir Next" font-size="9.3" font-weight="400" fill="#132532" font-style="normal">enemy.</text><text x="143.72910000000002" y="178.1" font-family="Avenir Next" font-size="9.3" font-weight="400" fill="#132532" font-style="normal">At</text><text x="9" y="188.8" font-family="Avenir Next" font-size="9.3" font-weight="400" fill="#132532" font-style="normal">the</text><text x="25.0146" y="188.8" font-family="Avenir Next" font-size="9.3" font-weight="400" fill="#132532" font-style="normal">end</text><text x="43.98660000000001" y="188.8" font-family="Avenir Next" font-size="9.3" font-weight="400" fill="#132532" font-style="normal">of</text><text x="54.737400000000015" y="188.8" font-family="Avenir Next" font-size="9.3" font-weight="400" fill="#132532" font-style="normal">the</text><text x="70.75200000000002" y="188.8" font-family="Avenir Next" font-size="9.3" font-weight="400" fill="#132532" font-style="normal">round,</text><text x="101.25600000000003" y="188.8" font-family="Avenir Next" font-size="9.3" font-weight="400" fill="#132532" font-style="normal">if</text><text x="108.64950000000003" y="188.8" font-family="Avenir Next" font-size="9.3" font-weight="400" fill="#132532" font-style="normal">Nick</text><text x="129.79770000000002" y="188.8" font-family="Avenir Next" font-size="9.3" font-weight="400" fill="#132532" font-style="normal">Fury</text><text x="150.639" y="188.8" font-family="Avenir Next" font-size="9.3" font-weight="400" fill="#132532" font-style="normal">is</text><text x="9" y="199.5" font-family="Avenir Next" font-size="9.3" font-weight="400" fill="#132532" font-style="normal">still</text><text x="25.4145" y="199.5" font-family="Avenir Next" font-size="9.3" font-weight="400" fill="#132532" font-style="normal">in</text><text x="35.467800000000004" y="199.5" font-family="Avenir Next" font-size="9.3" font-weight="400" fill="#132532" font-style="normal">play,</text><text x="57.96450000000001" y="199.5" font-family="Avenir Next" font-size="9.3" font-weight="400" fill="#132532" font-style="normal">discard</text><text x="91.55610000000001" y="199.5" font-family="Avenir Next" font-size="9.3" font-weight="400" fill="#132532" font-style="normal">him.</text><svg xmlns="http://www.w3.org/2000/svg" x="9" y="214" width="17" height="17" viewBox="92.88 -733.12 813.24 867.24"><desc>[mental]</desc><!-- Glyph M from the repository-pinned ChampionsIcons.ttf. --><path fill="#2675B8" transform="scale(1,-1)" d="M220 -92Q198 -83 184 -67Q168 -53 159 -31Q150 -10 150 14Q150 47 166 72Q182 99 210 114L227 364Q179 386 153 428Q125 471 125 524Q125 563 139 592Q153 626 176 649Q201 674 233 687Q264 701 302 701Q341 701 370 687Q402 674 427.0 649.0Q452 624 465 592Q479 563 479 524Q479 490 467 461L566 362Q590 375 613 380Q636 386 663 386Q698 386 733 374Q767 362 794 341Q820 321 840 290Q861 261 868 225Q874 201 874 174Q874 158 872 142Q867 104 844 64Q822 29 788 4Q755 -20 713 -31Q704 -33 688 -35Q680 -36 663 -36Q626 -36 592 -24Q559 -12 532 9Q504 31 485 60Q465 90 458 125Q451 149 451 175Q451 188 453 201Q459 239 477 274L383 367Q361 357 353 355L335 106Q356 90 368 65Q381 42 381 14Q381 -10 372 -31Q361 -53 347 -67Q331 -83 310 -92Q287 -102 266.0 -102.0Q245 -102 220 -92Z"/></svg>
<rect x="78" y="210" width="87" height="24" rx="2" fill="#132532" stroke="none" stroke-width="1"/><g transform="translate(85 217) scale(0.55)"><path d="M10 18C7 15 0 10 1 5C2 0 7 0 10 4C13 0 18 0 19 5C20 10 13 15 10 18Z" fill="#FFFFFF" stroke="#FFFFFF" stroke-width="1.65" stroke-linecap="round" stroke-linejoin="round"/></g><text x="158" y="228" font-family="Avenir Next" font-size="18" font-weight="600" fill="#FFFFFF" text-anchor="end">3</text></g></g><text x="36" y="409" font-family="Avenir Next" font-size="10" font-weight="400" fill="#67838E" >Effective values · details on inspection</text><text x="231" y="151" font-family="Avenir Next" font-size="13" font-weight="600" fill="#132532" >Attached</text><rect x="231" y="165" width="354" height="103" rx="3" fill="#FFFFFF" stroke="#ACBBC2" stroke-width="0.8"/><rect x="231" y="165" width="4" height="103" rx="0" fill="#2568A1" stroke="none" stroke-width="1"/><path d="M235 165H585V194L235 199Z" fill="#132532" stroke="none" stroke-width="1" /><text x="245" y="187" font-family="Avenir Next Condensed" font-size="18" font-weight="700" fill="#FFFFFF" >Inspired</text><path d="M562 178l5 5l5 -5" fill="none" stroke="#FFFFFF" stroke-width="1.4" /><g transform="translate(245 208) scale(0.75)"><path d="M3 3H16V12H3ZM5 6H13M5 9H10M12 15L18 20M16 14A4 4 0 1 0 8 14A4 4 0 1 0 16 14" fill="none" stroke="#132532" stroke-width="1.65" stroke-linecap="round" stroke-linejoin="round"/></g><text x="266" y="221" font-family="Avenir Next" font-size="16" font-weight="600" fill="#132532" >+1</text><g transform="translate(313 208) scale(0.75)"><path d="M5 18L17 6L18 1L13 2L2 13M4 11L10 17M2 19L5 16" fill="none" stroke="#132532" stroke-width="1.65" stroke-linecap="round" stroke-linejoin="round"/></g><text x="334" y="221" font-family="Avenir Next" font-size="16" font-weight="600" fill="#132532" >+1</text><text x="245" y="242" font-family="Avenir Next" font-size="12" font-weight="400" fill="#132532" font-style="normal">Max</text><text x="270.848" y="242" font-family="Avenir Next" font-size="12" font-weight="400" fill="#132532" font-style="normal">1</text><text x="280.808" y="242" font-family="Avenir Next" font-size="12" font-weight="400" fill="#132532" font-style="normal">per</text><text x="302.61199999999997" y="242" font-family="Avenir Next" font-size="12" font-weight="400" fill="#132532" font-style="normal">ally.</text><text x="231" y="291" font-family="Avenir Next" font-size="10" font-weight="400" fill="#67838E" >Inspect host for printed values and sources</text><text x="670" y="126" font-family="Avenir Next Condensed" font-size="24" font-weight="700" fill="#132532" >Rhino</text><g transform="translate(670 148)"><g><rect x="0" y="0" width="172" height="240" rx="3" fill="#FFFFFF" stroke="#132532" stroke-width="1"/><path d="M0 0H172V119L0 127Z" fill="#132532" stroke="none" stroke-width="1" /><path d="M43 57L172 28V100L81 120Z" fill="#BA3B45" stroke="none" stroke-width="1" /><rect x="0" y="0" width="5" height="240" rx="0" fill="#BA3B45" stroke="none" stroke-width="1"/><g transform="translate(99 44) scale(0.6083333333333333 0.5)"><path d="M28 22L46 9H79L97 31L94 73L73 98H41L22 72Z" fill="#FFFFFF" stroke="none" stroke-width="1" /><path d="M60 1L75 38L44 38ZM29 45L50 50L42 57ZM92 45L71 50L79 57ZM42 72H80L70 85H51Z" fill="#BA3B45" stroke="none" stroke-width="1" /></g><path d="M5 95H172V120L5 128Z" fill="#132532" stroke="none" stroke-width="1" /><g transform="translate(12 103) scale(0.55)"><path d="M1 4H19V17H1ZM5 1V7M15 1V7M5 11H8M12 11H15" fill="none" stroke="#FFFFFF" stroke-width="1.65" stroke-linecap="round" stroke-linejoin="round"/></g><text x="27" y="114" font-family="Avenir Next" font-size="16" font-weight="600" fill="#FFFFFF" >1</text><g transform="translate(51 103) scale(0.55)"><path d="M5 18L17 6L18 1L13 2L2 13M4 11L10 17M2 19L5 16" fill="none" stroke="#FFFFFF" stroke-width="1.65" stroke-linecap="round" stroke-linejoin="round"/></g><text x="66" y="114" font-family="Avenir Next" font-size="16" font-weight="600" fill="#FFFFFF" >5</text><rect x="65" y="115.5" width="11.76" height="1.5" rx="0" fill="#E8C877" stroke="none" stroke-width="1"/><svg xmlns="http://www.w3.org/2000/svg" x="12" y="14" width="13" height="13" viewBox="19.12 -781.88 559.76 806.76"><path fill="#FFFFFF" transform="scale(1,-1)" d="M299.0 5.0 L234.0 304.0 L49.0 378.0 L234.0 453.0 L299.0 752.0 L364.0 453.0 L549.0 378.0 L364.0 304.0 Z "/></svg><text x="39" y="23" font-family="Avenir Next Condensed" font-size="17" font-weight="700" fill="#FFFFFF" >Rhino</text><text x="39" y="37" font-family="Avenir Next" font-size="8" font-weight="500" fill="#FFFFFF" >Villain I</text><g transform="translate(11 45) scale(0.6)"><path d="M1 17L10 2L19 17H14L10 10L6 17Z" fill="#FFFFFF" stroke="#FFFFFF" stroke-width="1.65" stroke-linecap="round" stroke-linejoin="round"/></g><text x="163" y="134" font-family="Avenir Next" font-size="7.5" font-weight="600" fill="#BA3B45" text-anchor="end">Brute · Criminal</text><rect x="77" y="210" width="88" height="24" rx="2" fill="#132532" stroke="none" stroke-width="1"/><g transform="translate(84 217) scale(0.55)"><path d="M10 18C7 15 0 10 1 5C2 0 7 0 10 4C13 0 18 0 19 5C20 10 13 15 10 18Z" fill="#FFFFFF" stroke="#FFFFFF" stroke-width="1.65" stroke-linecap="round" stroke-linejoin="round"/></g><text x="104" y="228" font-family="Avenir Next" font-size="18" font-weight="600" fill="#FFFFFF" >14</text><text x="126" y="227" font-family="Avenir Next" font-size="12" font-weight="400" fill="#FFFFFF" >×</text><g transform="translate(142 216) scale(0.6)"><path d="M10 0A4 4 0 1 1 9.9 0M3 20V12Q10 7 17 12V20" fill="none" stroke="#FFFFFF" stroke-width="1.65" stroke-linecap="round" stroke-linejoin="round"/></g></g></g><text x="670" y="409" font-family="Avenir Next" font-size="10" font-weight="400" fill="#67838E" >Effective values · details on inspection</text><text x="865" y="151" font-family="Avenir Next" font-size="13" font-weight="600" fill="#132532" >Attached</text><rect x="865" y="165" width="354" height="103" rx="3" fill="#FFFFFF" stroke="#ACBBC2" stroke-width="0.8"/><rect x="865" y="165" width="4" height="103" rx="0" fill="#BA3B45" stroke="none" stroke-width="1"/><path d="M869 165H1219V194L869 199Z" fill="#132532" stroke="none" stroke-width="1" /><text x="879" y="187" font-family="Avenir Next Condensed" font-size="18" font-weight="700" fill="#FFFFFF" >Charge</text><path d="M1196 178l5 5l5 -5" fill="none" stroke="#FFFFFF" stroke-width="1.4" /><g transform="translate(879 208) scale(0.75)"><path d="M5 18L17 6L18 1L13 2L2 13M4 11L10 17M2 19L5 16" fill="none" stroke="#132532" stroke-width="1.65" stroke-linecap="round" stroke-linejoin="round"/></g><text x="900" y="221" font-family="Avenir Next" font-size="16" font-weight="600" fill="#132532" >+3</text><svg xmlns="http://www.w3.org/2000/svg" x="920.916" y="207" width="7" height="7" viewBox="72.32 -782.68 855.36 813.36"><path fill="#132532" transform="scale(1,-1)" d="M499.0 751.0 L632.0 514.0 L896.0 464.0 L708.0 263.0 L744.0 1.0 L499.0 122.0 L255.0 1.0 L291.0 263.0 L104.0 464.0 L367.0 514.0 Z "/></svg><text x="879" y="242" font-family="Avenir Next" font-size="12" font-weight="400" fill="#132532" font-style="normal">Next</text><text x="907.644" y="242" font-family="Avenir Next" font-size="12" font-weight="400" fill="#132532" font-style="normal">attack</text><text x="943.188" y="242" font-family="Avenir Next" font-size="12" font-weight="400" fill="#132532" font-style="normal">gains</text><text x="975.48" y="242" font-family="Avenir Next" font-size="12" font-weight="400" fill="#132532" font-style="normal">overkill;</text><text x="1021.62" y="242" font-family="Avenir Next" font-size="12" font-weight="400" fill="#132532" font-style="normal">discard</text><text x="1064.964" y="242" font-family="Avenir Next" font-size="12" font-weight="400" fill="#132532" font-style="normal">after</text><text x="1092.8999999999999" y="242" font-family="Avenir Next" font-size="12" font-weight="400" fill="#132532" font-style="normal">attack.</text><rect x="865" y="275" width="354" height="103" rx="3" fill="#FFFFFF" stroke="#ACBBC2" stroke-width="0.8"/><rect x="865" y="275" width="4" height="103" rx="0" fill="#BA3B45" stroke="none" stroke-width="1"/><path d="M869 275H1219V304L869 309Z" fill="#132532" stroke="none" stroke-width="1" /><text x="879" y="297" font-family="Avenir Next Condensed" font-size="18" font-weight="700" fill="#FFFFFF" >Armored Rhino Suit</text><path d="M1196 288l5 5l5 -5" fill="none" stroke="#FFFFFF" stroke-width="1.4" /><text x="879" y="331" font-family="Avenir Next" font-size="12" font-weight="400" fill="#132532" font-style="normal">All</text><text x="896.448" y="331" font-family="Avenir Next" font-size="12" font-weight="400" fill="#132532" font-style="normal">incoming</text><text x="950.904" y="331" font-family="Avenir Next" font-size="12" font-weight="400" fill="#132532" font-style="normal">damage</text><text x="999.408" y="331" font-family="Avenir Next" font-size="12" font-weight="400" fill="#132532" font-style="normal">→</text><text x="1008.552" y="331" font-family="Avenir Next" font-size="12" font-weight="400" fill="#132532" font-style="normal">here.</text><text x="1039.7160000000001" y="331" font-family="Avenir Next" font-size="12" font-weight="400" fill="#132532" font-style="normal">Discard</text><text x="1084.5000000000002" y="331" font-family="Avenir Next" font-size="12" font-weight="400" fill="#132532" font-style="normal">at</text><text x="1097.7120000000002" y="331" font-family="Avenir Next" font-size="12" font-weight="400" fill="#132532" font-style="normal">≥5</text><text x="1114.6320000000003" y="331" font-family="Avenir Next" font-size="12" font-weight="400" fill="#132532" font-style="normal">here.</text><text x="879" y="351" font-family="Avenir Next" font-size="12" font-weight="500" fill="#132532" >3 damage here</text><text x="865" y="401" font-family="Avenir Next" font-size="10" font-weight="400" fill="#67838E" >Inspect host for printed values and sources</text><text x="36" y="503" font-family="Avenir Next Condensed" font-size="24" font-weight="700" fill="#132532" >Advanced Ultron Drone</text><g transform="translate(36 525)"><g><rect x="0" y="0" width="172" height="240" rx="3" fill="#FFFFFF" stroke="#132532" stroke-width="1"/><path d="M0 0H172V119L0 127Z" fill="#132532" stroke="none" stroke-width="1" /><path d="M43 57L172 28V100L81 120Z" fill="#BA3B45" stroke="none" stroke-width="1" /><rect x="0" y="0" width="5" height="240" rx="0" fill="#BA3B45" stroke="none" stroke-width="1"/><g transform="translate(99 44) scale(0.6083333333333333 0.5)"><path d="M22 25L35 12H85L98 25V75L83 91H37L22 75Z" fill="#FFFFFF" stroke="none" stroke-width="1" /><path d="M31 34H89V57H31ZM39 67H81L73 80H47Z" fill="#BA3B45" stroke="none" stroke-width="1" /><circle cx="60" cy="45" r="8" fill="#FFFFFF" stroke="none" stroke-width="1"/><path d="M36 4V14M84 4V14" fill="none" stroke="#FFFFFF" stroke-width="5" /><path d="M27 64L33 72" fill="none" stroke="#BA3B45" stroke-width="2" /><path d="M93 64L87 72" fill="none" stroke="#BA3B45" stroke-width="2" /></g><path d="M5 95H172V120L5 128Z" fill="#132532" stroke="none" stroke-width="1" /><g transform="translate(12 103) scale(0.55)"><path d="M1 4H19V17H1ZM5 1V7M15 1V7M5 11H8M12 11H15" fill="none" stroke="#FFFFFF" stroke-width="1.65" stroke-linecap="round" stroke-linejoin="round"/></g><text x="27" y="114" font-family="Avenir Next" font-size="16" font-weight="600" fill="#FFFFFF" >1</text><g transform="translate(51 103) scale(0.55)"><path d="M5 18L17 6L18 1L13 2L2 13M4 11L10 17M2 19L5 16" fill="none" stroke="#FFFFFF" stroke-width="1.65" stroke-linecap="round" stroke-linejoin="round"/></g><text x="66" y="114" font-family="Avenir Next" font-size="16" font-weight="600" fill="#FFFFFF" >2</text><rect x="65" y="115.5" width="11.76" height="1.5" rx="0" fill="#E8C877" stroke="none" stroke-width="1"/><text x="39" y="23" font-family="Avenir Next Condensed" font-size="17" font-weight="700" fill="#FFFFFF" >Advanced Ultron</text><text x="39" y="39" font-family="Avenir Next Condensed" font-size="17" font-weight="700" fill="#FFFFFF" >Drone</text><text x="39" y="52" font-family="Avenir Next" font-size="8" font-weight="500" fill="#FFFFFF" >Minion</text><g transform="translate(11 45) scale(0.6)"><path d="M1 17L10 2L19 17H14L10 10L6 17Z" fill="#FFFFFF" stroke="#FFFFFF" stroke-width="1.65" stroke-linecap="round" stroke-linejoin="round"/></g><text x="163" y="134" font-family="Avenir Next" font-size="7.5" font-weight="600" fill="#BA3B45" text-anchor="end">Drone</text><text x="9" y="146.0" font-family="Avenir Next" font-size="8.9" font-weight="400" fill="#132532" font-style="normal">Guard.</text><text x="9" y="156.1" font-family="Avenir Next" font-size="8.9" font-weight="600" fill="#132532" font-style="normal">Forced</text><text x="40.087700000000005" y="156.1" font-family="Avenir Next" font-size="8.9" font-weight="600" fill="#132532" font-style="normal">Interrupt</text><text x="76.23060000000001" y="156.1" font-family="Avenir Next" font-size="8.9" font-weight="400" fill="#132532" font-style="normal">:</text><text x="81.1256" y="156.1" font-family="Avenir Next" font-size="8.9" font-weight="400" fill="#132532" font-style="normal">When</text><text x="107.4518" y="156.1" font-family="Avenir Next" font-size="8.9" font-weight="400" fill="#132532" font-style="normal">Advanced</text><text x="9" y="166.2" font-family="Avenir Next" font-size="8.9" font-weight="400" fill="#132532" font-style="normal">Ultron</text><text x="36.4209" y="166.2" font-family="Avenir Next" font-size="8.9" font-weight="400" fill="#132532" font-style="normal">Drone</text><text x="64.2868" y="166.2" font-family="Avenir Next" font-size="8.9" font-weight="400" fill="#132532" font-style="normal">is</text><text x="72.6884" y="166.2" font-family="Avenir Next" font-size="8.9" font-weight="400" fill="#132532" font-style="normal">defeated,</text><text x="114.0378" y="166.2" font-family="Avenir Next" font-size="8.9" font-weight="400" fill="#132532" font-style="normal">the</text><text x="9" y="176.3" font-family="Avenir Next" font-size="8.9" font-weight="400" fill="#132532" font-style="normal">engaged</text><text x="48.249" y="176.3" font-family="Avenir Next" font-size="8.9" font-weight="400" fill="#132532" font-style="normal">player</text><text x="75.7589" y="176.3" font-family="Avenir Next" font-size="8.9" font-weight="400" fill="#132532" font-style="normal">puts</text><text x="95.57919999999999" y="176.3" font-family="Avenir Next" font-size="8.9" font-weight="400" fill="#132532" font-style="normal">the</text><text x="110.90499999999999" y="176.3" font-family="Avenir Next" font-size="8.9" font-weight="400" fill="#132532" font-style="normal">top</text><text x="127.04069999999999" y="176.3" font-family="Avenir Next" font-size="8.9" font-weight="400" fill="#132532" font-style="normal">card</text><text x="147.34159999999997" y="176.3" font-family="Avenir Next" font-size="8.9" font-weight="400" fill="#132532" font-style="normal">of</text><text x="9" y="186.4" font-family="Avenir Next" font-size="8.9" font-weight="400" fill="#132532" font-style="normal">their</text><text x="29.754800000000003" y="186.4" font-family="Avenir Next" font-size="8.9" font-weight="400" fill="#132532" font-style="normal">deck</text><text x="51.7289" y="186.4" font-family="Avenir Next" font-size="8.9" font-weight="400" fill="#132532" font-style="normal">into</text><text x="69.609" y="186.4" font-family="Avenir Next" font-size="8.9" font-weight="400" fill="#132532" font-style="normal">play</text><text x="88.82409999999999" y="186.4" font-family="Avenir Next" font-size="8.9" font-weight="400" fill="#132532" font-style="normal">facedown,</text><text x="9" y="196.5" font-family="Avenir Next" font-size="8.9" font-weight="400" fill="#132532" font-style="normal">engaged</text><text x="48.249" y="196.5" font-family="Avenir Next" font-size="8.9" font-weight="400" fill="#132532" font-style="normal">with</text><text x="67.3484" y="196.5" font-family="Avenir Next" font-size="8.9" font-weight="400" fill="#132532" font-style="normal">them</text><text x="90.5329" y="196.5" font-family="Avenir Next" font-size="8.9" font-weight="400" fill="#132532" font-style="normal">as</text><text x="101.46209999999999" y="196.5" font-family="Avenir Next" font-size="8.9" font-weight="400" fill="#132532" font-style="normal">a</text><text x="108.43969999999999" y="196.5" font-family="Avenir Next" font-size="8.9" font-weight="400" fill="#132532" font-style="normal">Drone</text><text x="9" y="206.6" font-family="Avenir Next" font-size="8.9" font-weight="400" fill="#132532" font-style="normal">minion.</text><g transform="translate(9 217) scale(0.5)"><path d="M1 17L10 2L19 17H14L10 10L6 17Z" fill="#BA3B45" stroke="#BA3B45" stroke-width="1.65" stroke-linecap="round" stroke-linejoin="round"/></g><g transform="translate(21 217) scale(0.5)"><path d="M1 17L10 2L19 17H14L10 10L6 17Z" fill="#BA3B45" stroke="#BA3B45" stroke-width="1.65" stroke-linecap="round" stroke-linejoin="round"/></g></g></g><rect x="114" y="735" width="87" height="24" rx="2" fill="#132532" stroke="none" stroke-width="1"/><g transform="translate(121 742) scale(0.55)"><path d="M10 18C7 15 0 10 1 5C2 0 7 0 10 4C13 0 18 0 19 5C20 10 13 15 10 18Z" fill="#FFFFFF" stroke="#FFFFFF" stroke-width="1.65" stroke-linecap="round" stroke-linejoin="round"/></g><text x="194" y="753" font-family="Avenir Next" font-size="18" font-weight="600" fill="#FFFFFF" text-anchor="end">5/8</text><rect x="114" y="757" width="54.375" height="2" rx="0" fill="#E8C877" stroke="none" stroke-width="1"/><text x="36" y="786" font-family="Avenir Next" font-size="10" font-weight="400" fill="#67838E" >Effective values · details on inspection</text><text x="231" y="528" font-family="Avenir Next" font-size="13" font-weight="600" fill="#132532" >Attached</text><rect x="231" y="542" width="354" height="103" rx="3" fill="#FFFFFF" stroke="#ACBBC2" stroke-width="0.8"/><rect x="231" y="542" width="4" height="103" rx="0" fill="#BA3B45" stroke="none" stroke-width="1"/><path d="M235 542H585V571L235 576Z" fill="#132532" stroke="none" stroke-width="1" /><text x="245" y="564" font-family="Avenir Next Condensed" font-size="18" font-weight="700" fill="#FFFFFF" >Genetically Enhanced</text><path d="M562 555l5 5l5 -5" fill="none" stroke="#FFFFFF" stroke-width="1.4" /><g transform="translate(245 585) scale(0.75)"><path d="M10 18C7 15 0 10 1 5C2 0 7 0 10 4C13 0 18 0 19 5C20 10 13 15 10 18Z" fill="#132532" stroke="#132532" stroke-width="1.65" stroke-linecap="round" stroke-linejoin="round"/></g><text x="266" y="598" font-family="Avenir Next" font-size="16" font-weight="600" fill="#132532" >+3</text><text x="294" y="598" font-family="Avenir Next" font-size="10" font-weight="400" fill="#67838E" >max</text><text x="245" y="619" font-family="Avenir Next" font-size="12" font-weight="400" fill="#132532" font-style="normal">Maximum</text><text x="302.012" y="619" font-family="Avenir Next" font-size="12" font-weight="400" fill="#132532" font-style="normal">HP;</text><text x="324.188" y="619" font-family="Avenir Next" font-size="12" font-weight="400" fill="#132532" font-style="normal">existing</text><text x="369.548" y="619" font-family="Avenir Next" font-size="12" font-weight="400" fill="#132532" font-style="normal">damage</text><text x="418.052" y="619" font-family="Avenir Next" font-size="12" font-weight="400" fill="#132532" font-style="normal">stays.</text><rect x="231" y="652" width="354" height="82" rx="3" fill="#FFFFFF" stroke="#ACBBC2" stroke-width="0.8"/><rect x="231" y="652" width="4" height="82" rx="0" fill="#704CAD" stroke="none" stroke-width="1"/><path d="M235 652H585V681L235 686Z" fill="#132532" stroke="none" stroke-width="1" /><text x="245" y="674" font-family="Avenir Next Condensed" font-size="18" font-weight="700" fill="#FFFFFF" >Spider-Tracer</text><path d="M562 665l5 5l5 -5" fill="none" stroke="#FFFFFF" stroke-width="1.4" /><text x="245" y="708" font-family="Avenir Next" font-size="12" font-weight="400" fill="#132532" font-style="normal">On</text><text x="265.172" y="708" font-family="Avenir Next" font-size="12" font-weight="400" fill="#132532" font-style="normal">minion</text><text x="306.04400000000004" y="708" font-family="Avenir Next" font-size="12" font-weight="400" fill="#132532" font-style="normal">defeat:</text><text x="347.76800000000003" y="708" font-family="Avenir Next" font-size="12" font-weight="400" fill="#132532" font-style="normal">remove</text><text x="392.6" y="708" font-family="Avenir Next" font-size="12" font-weight="400" fill="#132532" font-style="normal">3</text><text x="402.56" y="708" font-family="Avenir Next" font-size="12" font-weight="400" fill="#132532" font-style="normal">threat</text><text x="437.75600000000003" y="708" font-family="Avenir Next" font-size="12" font-weight="400" fill="#132532" font-style="normal">from</text><text x="466.54400000000004" y="708" font-family="Avenir Next" font-size="12" font-weight="400" fill="#132532" font-style="normal">a</text><text x="475.95200000000006" y="708" font-family="Avenir Next" font-size="12" font-weight="400" fill="#132532" font-style="normal">scheme.</text><text x="231" y="757" font-family="Avenir Next" font-size="12" font-weight="600" fill="#132532" >Field effect · not attached</text><rect x="231" y="771" width="354" height="103" rx="3" fill="#FFFFFF" stroke="#ACBBC2" stroke-width="0.8"/><rect x="231" y="771" width="4" height="103" rx="0" fill="#BA3B45" stroke="none" stroke-width="1"/><path d="M235 771H585V800L235 805Z" fill="#132532" stroke="none" stroke-width="1" /><text x="245" y="793" font-family="Avenir Next Condensed" font-size="18" font-weight="700" fill="#FFFFFF" >Ultron III</text><path d="M562 784l5 5l5 -5" fill="none" stroke="#FFFFFF" stroke-width="1.4" /><g transform="translate(245 814) scale(0.75)"><path d="M5 18L17 6L18 1L13 2L2 13M4 11L10 17M2 19L5 16" fill="none" stroke="#132532" stroke-width="1.65" stroke-linecap="round" stroke-linejoin="round"/></g><text x="266" y="827" font-family="Avenir Next" font-size="16" font-weight="600" fill="#132532" >+1</text><g transform="translate(313 814) scale(0.75)"><path d="M10 18C7 15 0 10 1 5C2 0 7 0 10 4C13 0 18 0 19 5C20 10 13 15 10 18Z" fill="#132532" stroke="#132532" stroke-width="1.65" stroke-linecap="round" stroke-linejoin="round"/></g><text x="334" y="827" font-family="Avenir Next" font-size="16" font-weight="600" fill="#132532" >+1</text><text x="362" y="827" font-family="Avenir Next" font-size="10" font-weight="400" fill="#67838E" >max</text><text x="245" y="848" font-family="Avenir Next" font-size="12" font-weight="400" fill="#132532" font-style="normal">Each</text><text x="274.508" y="848" font-family="Avenir Next" font-size="12" font-weight="400" fill="#132532" font-style="normal">Drone;</text><text x="315.67999999999995" y="848" font-family="Avenir Next" font-size="12" font-weight="400" fill="#132532" font-style="normal">source</text><text x="355.496" y="848" font-family="Avenir Next" font-size="12" font-weight="400" fill="#132532" font-style="normal">is</text><text x="366.82399999999996" y="848" font-family="Avenir Next" font-size="12" font-weight="400" fill="#132532" font-style="normal">Ultron</text><text x="403.79599999999994" y="848" font-family="Avenir Next" font-size="12" font-weight="400" fill="#132532" font-style="normal">III.</text><text x="231" y="897" font-family="Avenir Next" font-size="10" font-weight="400" fill="#67838E" >Inspect host for printed values and sources</text><text x="670" y="503" font-family="Avenir Next Condensed" font-size="24" font-weight="700" fill="#132532" >Iron Man</text><g transform="translate(670 525)"><g><rect x="0" y="0" width="172" height="240" rx="3" fill="#FFFFFF" stroke="#132532" stroke-width="1"/><path d="M0 0H172V119L0 127Z" fill="#132532" stroke="none" stroke-width="1" /><path d="M43 57L172 28V100L81 120Z" fill="#704CAD" stroke="none" stroke-width="1" /><rect x="0" y="0" width="5" height="240" rx="0" fill="#704CAD" stroke="none" stroke-width="1"/><g transform="translate(99 44) scale(0.6083333333333333 0.5)"><path d="M31 6H89L100 24L93 73L77 95H43L27 73L20 24Z" fill="#FFFFFF" stroke="none" stroke-width="1" /><path d="M35 15H85L85 50L76 64V82H44V64L35 50ZM33 40L54 43V51L36 49ZM87 40L66 43V51L84 49Z" fill="#704CAD" stroke="none" stroke-width="1" /><path d="M43 78H77M46 87H74" fill="none" stroke="#704CAD" stroke-width="3" /></g><path d="M5 95H172V120L5 128Z" fill="#132532" stroke="none" stroke-width="1" /><g transform="translate(12 103) scale(0.55)"><path d="M3 3H16V12H3ZM5 6H13M5 9H10M12 15L18 20M16 14A4 4 0 1 0 8 14A4 4 0 1 0 16 14" fill="none" stroke="#FFFFFF" stroke-width="1.65" stroke-linecap="round" stroke-linejoin="round"/></g><text x="27" y="114" font-family="Avenir Next" font-size="16" font-weight="600" fill="#FFFFFF" >2</text><g transform="translate(51 103) scale(0.55)"><path d="M5 18L17 6L18 1L13 2L2 13M4 11L10 17M2 19L5 16" fill="none" stroke="#FFFFFF" stroke-width="1.65" stroke-linecap="round" stroke-linejoin="round"/></g><text x="66" y="114" font-family="Avenir Next" font-size="16" font-weight="600" fill="#FFFFFF" >1</text><g transform="translate(90 103) scale(0.55)"><path d="M3 2L10 0L17 2V10Q16 16 10 20Q4 16 3 10Z" fill="none" stroke="#FFFFFF" stroke-width="1.65" stroke-linecap="round" stroke-linejoin="round"/></g><text x="105" y="114" font-family="Avenir Next" font-size="16" font-weight="600" fill="#FFFFFF" >1</text><g transform="translate(129 103) scale(0.55)"><path d="M2 5L8 3L11 17L5 19ZM7 2L14 1L17 16L11 17ZM12 2L18 3L19 16" fill="none" stroke="#FFFFFF" stroke-width="1.65" stroke-linecap="round" stroke-linejoin="round"/></g><text x="144" y="114" font-family="Avenir Next" font-size="16" font-weight="600" fill="#FFFFFF" >3</text><rect x="143" y="115.5" width="11.76" height="1.5" rx="0" fill="#E8C877" stroke="none" stroke-width="1"/><svg xmlns="http://www.w3.org/2000/svg" x="12" y="14" width="13" height="13" viewBox="19.12 -781.88 559.76 806.76"><path fill="#FFFFFF" transform="scale(1,-1)" d="M299.0 5.0 L234.0 304.0 L49.0 378.0 L234.0 453.0 L299.0 752.0 L364.0 453.0 L549.0 378.0 L364.0 304.0 Z "/></svg><text x="39" y="23" font-family="Avenir Next Condensed" font-size="17" font-weight="700" fill="#FFFFFF" >Iron Man</text><text x="39" y="37" font-family="Avenir Next" font-size="8" font-weight="500" fill="#FFFFFF" >Hero</text><g transform="translate(11 45) scale(0.6)"><path d="M1 14L6 5L10 12L14 5L19 14M4 18H16" fill="none" stroke="#FFFFFF" stroke-width="1.65" stroke-linecap="round" stroke-linejoin="round"/></g><text x="163" y="134" font-family="Avenir Next" font-size="7.5" font-weight="600" fill="#704CAD" text-anchor="end">Avenger</text><text x="9" y="146.0" font-family="Avenir Next" font-size="9.3" font-weight="400" fill="#132532" font-style="normal">You</text><text x="28.0092" y="146.0" font-family="Avenir Next" font-size="9.3" font-weight="400" fill="#132532" font-style="normal">get</text><text x="44.4795" y="146.0" font-family="Avenir Next" font-size="9.3" font-weight="400" fill="#132532" font-style="normal">+1</text><text x="58.392300000000006" y="146.0" font-family="Avenir Next" font-size="9.3" font-weight="400" fill="#132532" font-style="normal">hand</text><text x="82.43280000000001" y="146.0" font-family="Avenir Next" font-size="9.3" font-weight="400" fill="#132532" font-style="normal">size</text><text x="100.64220000000002" y="146.0" font-family="Avenir Next" font-size="9.3" font-weight="400" fill="#132532" font-style="normal">for</text><text x="114.74100000000003" y="146.0" font-family="Avenir Next" font-size="9.3" font-weight="400" fill="#132532" font-style="normal">each</text><text x="137.42370000000003" y="146.0" font-family="Avenir Next" font-size="9.3" font-weight="400" fill="#132532" font-style="normal">Tech</text><text x="9" y="156.7" font-family="Avenir Next" font-size="9.3" font-weight="400" fill="#132532" font-style="normal">upgrade</text><text x="48.069300000000005" y="156.7" font-family="Avenir Next" font-size="9.3" font-weight="400" fill="#132532" font-style="normal">you</text><text x="66.01830000000001" y="156.7" font-family="Avenir Next" font-size="9.3" font-weight="400" fill="#132532" font-style="normal">control</text><text x="98.40090000000002" y="156.7" font-family="Avenir Next" font-size="9.3" font-weight="400" fill="#132532" font-style="normal">(to</text><text x="112.14630000000002" y="156.7" font-family="Avenir Next" font-size="9.3" font-weight="400" fill="#132532" font-style="normal">a</text><text x="119.43750000000003" y="156.7" font-family="Avenir Next" font-size="9.3" font-weight="400" fill="#132532" font-style="normal">maximum</text><text x="9" y="167.4" font-family="Avenir Next" font-size="9.3" font-weight="400" fill="#132532" font-style="normal">hand</text><text x="33.0405" y="167.4" font-family="Avenir Next" font-size="9.3" font-weight="400" fill="#132532" font-style="normal">size</text><text x="51.24990000000001" y="167.4" font-family="Avenir Next" font-size="9.3" font-weight="400" fill="#132532" font-style="normal">of</text><text x="62.000700000000016" y="167.4" font-family="Avenir Next" font-size="9.3" font-weight="400" fill="#132532" font-style="normal">7).</text></g></g><rect x="748" y="735" width="87" height="24" rx="2" fill="#132532" stroke="none" stroke-width="1"/><g transform="translate(755 742) scale(0.55)"><path d="M10 18C7 15 0 10 1 5C2 0 7 0 10 4C13 0 18 0 19 5C20 10 13 15 10 18Z" fill="#FFFFFF" stroke="#FFFFFF" stroke-width="1.65" stroke-linecap="round" stroke-linejoin="round"/></g><text x="828" y="753" font-family="Avenir Next" font-size="18" font-weight="600" fill="#FFFFFF" text-anchor="end">10/15</text><rect x="748" y="757" width="58.0" height="2" rx="0" fill="#E8C877" stroke="none" stroke-width="1"/><text x="670" y="786" font-family="Avenir Next" font-size="10" font-weight="400" fill="#67838E" >Effective values · details on inspection</text><text x="865" y="528" font-family="Avenir Next" font-size="13" font-weight="600" fill="#132532" >Controlled upgrades · not attached</text><rect x="865" y="542" width="354" height="103" rx="3" fill="#FFFFFF" stroke="#ACBBC2" stroke-width="0.8"/><rect x="865" y="542" width="4" height="103" rx="0" fill="#704CAD" stroke="none" stroke-width="1"/><path d="M869 542H1219V571L869 576Z" fill="#132532" stroke="none" stroke-width="1" /><text x="879" y="564" font-family="Avenir Next Condensed" font-size="18" font-weight="700" fill="#FFFFFF" >Mark V Armor</text><path d="M1196 555l5 5l5 -5" fill="none" stroke="#FFFFFF" stroke-width="1.4" /><g transform="translate(879 585) scale(0.75)"><path d="M10 18C7 15 0 10 1 5C2 0 7 0 10 4C13 0 18 0 19 5C20 10 13 15 10 18Z" fill="#132532" stroke="#132532" stroke-width="1.65" stroke-linecap="round" stroke-linejoin="round"/></g><text x="900" y="598" font-family="Avenir Next" font-size="16" font-weight="600" fill="#132532" >+6</text><text x="928" y="598" font-family="Avenir Next" font-size="10" font-weight="400" fill="#67838E" >max</text><text x="879" y="619" font-family="Avenir Next" font-size="12" font-weight="400" fill="#132532" font-style="normal">Maximum</text><text x="936.012" y="619" font-family="Avenir Next" font-size="12" font-weight="400" fill="#132532" font-style="normal">HP;</text><text x="958.188" y="619" font-family="Avenir Next" font-size="12" font-weight="400" fill="#132532" font-style="normal">existing</text><text x="1003.548" y="619" font-family="Avenir Next" font-size="12" font-weight="400" fill="#132532" font-style="normal">damage</text><text x="1052.052" y="619" font-family="Avenir Next" font-size="12" font-weight="400" fill="#132532" font-style="normal">stays.</text><rect x="865" y="652" width="354" height="82" rx="3" fill="#FFFFFF" stroke="#ACBBC2" stroke-width="0.8"/><rect x="865" y="652" width="4" height="82" rx="0" fill="#704CAD" stroke="none" stroke-width="1"/><path d="M869 652H1219V681L869 686Z" fill="#132532" stroke="none" stroke-width="1" /><text x="879" y="674" font-family="Avenir Next Condensed" font-size="18" font-weight="700" fill="#FFFFFF" >Arc Reactor</text><path d="M1196 665l5 5l5 -5" fill="none" stroke="#FFFFFF" stroke-width="1.4" /><text x="879" y="708" font-family="Avenir Next" font-size="12" font-weight="400" fill="#132532" font-style="normal">Exhaust</text><text x="924.42" y="708" font-family="Avenir Next" font-size="12" font-weight="400" fill="#132532" font-style="normal">this</text><text x="946.548" y="708" font-family="Avenir Next" font-size="12" font-weight="400" fill="#132532" font-style="normal">→</text><text x="955.692" y="708" font-family="Avenir Next" font-size="12" font-weight="400" fill="#132532" font-style="normal">ready</text><text x="989.784" y="708" font-family="Avenir Next" font-size="12" font-weight="400" fill="#132532" font-style="normal">Iron</text><text x="1014.528" y="708" font-family="Avenir Next" font-size="12" font-weight="400" fill="#132532" font-style="normal">Man.</text><text x="865" y="757" font-family="Avenir Next" font-size="10" font-weight="400" fill="#67838E" >Inspect host for printed values and sources</text><text x="36" y="1190" font-family="Avenir Next Condensed" font-size="20" font-weight="700" fill="#132532" >Attached • controlled • field effect</text><text x="36" y="1217" font-family="Avenir Next" font-size="12" font-weight="400" fill="#132532" >Relationships come from the engine. Summaries preserve triggers, durations, removal costs and counters instead of converting everything into bonuses.</text></svg>