<svg xmlns="http://www.w3.org/2000/svg" width="806" height="454" viewBox="0 0 806 454"><rect x="0" y="0" width="806" height="454" rx="0" fill="#E8EEF0" stroke="none" stroke-width="1"/><text x="36" y="46" font-family="Avenir Next Condensed" font-size="28" font-weight="700" fill="#132532" >Verified printed stars and conditional live values</text><g transform="translate(36 91)"><g><rect x="0" y="0" width="172" height="240" rx="3" fill="#FFFFFF" stroke="#132532" stroke-width="1"/><path d="M0 0H172V119L0 127Z" fill="#132532" stroke="none" stroke-width="1" /><path d="M43 57L172 28V100L81 120Z" fill="#2568A1" stroke="none" stroke-width="1" /><rect x="0" y="0" width="5" height="240" rx="0" fill="#2568A1" stroke="none" stroke-width="1"/><g transform="translate(99 44) scale(0.6083333333333333 0.5)"><path d="M35 9Q61 -3 85 12L84 47L72 66L76 73L103 83L116 99H4L18 82L43 73L47 64L34 44Z" fill="#FFFFFF" stroke="none" stroke-width="1" /><path d="M33 26H86V39H33ZM43 77L52 91L60 82L70 91L79 76" fill="none" stroke="#2568A1" stroke-width="7" /><path d="M48 55H72" fill="none" stroke="#2568A1" stroke-width="3" /></g><path d="M5 95H172V120L5 128Z" fill="#132532" stroke="none" stroke-width="1" /><g transform="translate(12 103) scale(0.55)"><path d="M3 3H16V12H3ZM5 6H13M5 9H10M12 15L18 20M16 14A4 4 0 1 0 8 14A4 4 0 1 0 16 14" fill="none" stroke="#FFFFFF" stroke-width="1.65" stroke-linecap="round" stroke-linejoin="round"/></g><text x="27" y="114" font-family="Avenir Next" font-size="16" font-weight="600" fill="#FFFFFF" >1</text><svg xmlns="http://www.w3.org/2000/svg" x="28.88" y="119" width="6" height="6" viewBox="14.0 -741.0 972.0 882.0"><path fill="#FFFFFF" transform="scale(1,-1)" d="M770.0 312.0 Q783.0 262.0 812.0 219.0 Q843.0 175.0 873.0 142.0 Q910.0 104.0 950.0 71.0 Q891.0 93.0 833.0 104.0 Q808.0 108.0 782.0 111.0 Q755.0 114.0 728.5 114.0 Q702.0 114.0 676.0 110.0 Q650.0 106.0 628.0 97.0 Q612.0 90.0 597.5 78.0 Q583.0 66.0 570.0 50.5 Q557.0 35.0 545.0 18.0 Q533.0 1.0 524.0 -17.0 Q501.0 -58.0 483.0 -105.0 Q471.0 -65.0 455.0 -28.0 Q441.0 4.0 419.0 42.0 Q397.0 79.0 366.0 111.0 Q351.0 125.0 329.0 138.0 Q307.0 151.0 282.0 161.0 Q256.0 172.0 230.0 180.0 Q201.0 188.0 178.0 194.0 Q118.0 208.0 50.0 217.0 Q98.0 239.0 145.0 269.0 Q185.0 295.0 227.0 329.5 Q269.0 364.0 299.0 405.0 Q328.0 448.0 344.0 500.0 Q359.0 551.0 366.0 598.0 Q374.0 652.0 374.0 705.0 Q407.0 665.0 441.0 631.0 Q455.0 616.0 472.0 602.0 Q488.0 587.0 505.0 574.5 Q522.0 562.0 540.0 552.0 Q558.0 542.0 575.0 537.0 Q598.0 530.0 624.0 531.0 Q651.0 533.0 679.0 540.0 Q708.0 546.0 735.0 557.0 Q765.0 569.0 790.0 581.0 Q852.0 610.0 913.0 652.0 Q863.0 591.0 828.0 531.0 Q812.0 506.0 798.5 477.5 Q785.0 449.0 777.0 421.0 Q768.0 393.0 765.5 365.0 Q763.0 337.0 770.0 312.0 Z M584.0 199.0 Q608.0 209.0 634.0 213.0 Q660.0 218.0 687.0 219.0 Q678.0 238.0 672.0 253.0 Q664.0 271.0 658.0 289.0 Q650.0 322.0 653.0 355.0 Q656.0 389.0 667.0 423.0 Q601.0 406.0 550.0 423.0 Q536.0 427.0 519.0 434.0 Q503.0 441.0 488.0 451.0 Q480.0 456.0 473.0 460.0 Q466.0 465.0 460.0 472.0 Q452.0 438.0 438.0 404.5 Q424.0 371.0 402.0 342.0 Q386.0 319.0 367.0 300.0 Q348.0 281.0 327.0 263.0 Q350.0 256.0 373.0 246.0 Q396.0 236.0 413.0 223.0 Q422.0 217.0 433.0 209.0 Q444.0 202.0 451.0 195.0 Q465.0 180.0 478.5 164.0 Q492.0 148.0 501.0 130.0 Q521.0 155.0 541.0 172.0 Q561.0 190.0 584.0 199.0 Z "/></svg><g transform="translate(51 103) scale(0.55)"><path d="M5 18L17 6L18 1L13 2L2 13M4 11L10 17M2 19L5 16" fill="none" stroke="#FFFFFF" stroke-width="1.65" stroke-linecap="round" stroke-linejoin="round"/></g><text x="66" y="114" font-family="Avenir Next" font-size="16" font-weight="600" fill="#FFFFFF" >3</text><svg xmlns="http://www.w3.org/2000/svg" x="67.88" y="119" width="6" height="6" viewBox="14.0 -741.0 972.0 882.0"><path fill="#FFFFFF" transform="scale(1,-1)" d="M770.0 312.0 Q783.0 262.0 812.0 219.0 Q843.0 175.0 873.0 142.0 Q910.0 104.0 950.0 71.0 Q891.0 93.0 833.0 104.0 Q808.0 108.0 782.0 111.0 Q755.0 114.0 728.5 114.0 Q702.0 114.0 676.0 110.0 Q650.0 106.0 628.0 97.0 Q612.0 90.0 597.5 78.0 Q583.0 66.0 570.0 50.5 Q557.0 35.0 545.0 18.0 Q533.0 1.0 524.0 -17.0 Q501.0 -58.0 483.0 -105.0 Q471.0 -65.0 455.0 -28.0 Q441.0 4.0 419.0 42.0 Q397.0 79.0 366.0 111.0 Q351.0 125.0 329.0 138.0 Q307.0 151.0 282.0 161.0 Q256.0 172.0 230.0 180.0 Q201.0 188.0 178.0 194.0 Q118.0 208.0 50.0 217.0 Q98.0 239.0 145.0 269.0 Q185.0 295.0 227.0 329.5 Q269.0 364.0 299.0 405.0 Q328.0 448.0 344.0 500.0 Q359.0 551.0 366.0 598.0 Q374.0 652.0 374.0 705.0 Q407.0 665.0 441.0 631.0 Q455.0 616.0 472.0 602.0 Q488.0 587.0 505.0 574.5 Q522.0 562.0 540.0 552.0 Q558.0 542.0 575.0 537.0 Q598.0 530.0 624.0 531.0 Q651.0 533.0 679.0 540.0 Q708.0 546.0 735.0 557.0 Q765.0 569.0 790.0 581.0 Q852.0 610.0 913.0 652.0 Q863.0 591.0 828.0 531.0 Q812.0 506.0 798.5 477.5 Q785.0 449.0 777.0 421.0 Q768.0 393.0 765.5 365.0 Q763.0 337.0 770.0 312.0 Z M584.0 199.0 Q608.0 209.0 634.0 213.0 Q660.0 218.0 687.0 219.0 Q678.0 238.0 672.0 253.0 Q664.0 271.0 658.0 289.0 Q650.0 322.0 653.0 355.0 Q656.0 389.0 667.0 423.0 Q601.0 406.0 550.0 423.0 Q536.0 427.0 519.0 434.0 Q503.0 441.0 488.0 451.0 Q480.0 456.0 473.0 460.0 Q466.0 465.0 460.0 472.0 Q452.0 438.0 438.0 404.5 Q424.0 371.0 402.0 342.0 Q386.0 319.0 367.0 300.0 Q348.0 281.0 327.0 263.0 Q350.0 256.0 373.0 246.0 Q396.0 236.0 413.0 223.0 Q422.0 217.0 433.0 209.0 Q444.0 202.0 451.0 195.0 Q465.0 180.0 478.5 164.0 Q492.0 148.0 501.0 130.0 Q521.0 155.0 541.0 172.0 Q561.0 190.0 584.0 199.0 Z "/></svg><svg xmlns="http://www.w3.org/2000/svg" x="76.26" y="101" width="6.5" height="6.5" viewBox="72.32 -782.68 855.36 813.36"><path fill="#FFFFFF" transform="scale(1,-1)" d="M499.0 751.0 L632.0 514.0 L896.0 464.0 L708.0 263.0 L744.0 1.0 L499.0 122.0 L255.0 1.0 L291.0 263.0 L104.0 464.0 L367.0 514.0 Z "/></svg><path d="M8 8H35V29L29 35H8Z" fill="#2568A1" stroke="none" stroke-width="1" /><text x="21.5" y="29" font-family="Avenir Next" font-size="23" font-weight="600" fill="#FFFFFF" text-anchor="middle">2</text><svg xmlns="http://www.w3.org/2000/svg" x="39" y="14" width="7" height="7" viewBox="19.12 -781.88 559.76 806.76"><path fill="#FFFFFF" transform="scale(1,-1)" d="M299.0 5.0 L234.0 304.0 L49.0 378.0 L234.0 453.0 L299.0 752.0 L364.0 453.0 L549.0 378.0 L364.0 304.0 Z "/></svg><text x="49" y="23" font-family="Avenir Next Condensed" font-size="17" font-weight="700" fill="#FFFFFF" >Wonder Man</text><text x="49" y="37" font-family="Avenir Next" font-size="8" font-weight="500" fill="#FFFFFF" >Ally</text><g transform="translate(11 45) scale(0.6)"><path d="M10 0A4 4 0 1 1 9.9 0M3 20V12Q10 7 17 12V20" fill="none" stroke="#FFFFFF" stroke-width="1.65" stroke-linecap="round" stroke-linejoin="round"/></g><text x="163" y="134" font-family="Avenir Next" font-size="7.5" font-weight="600" fill="#2568A1" text-anchor="end">Avenger</text><g><desc>[star]</desc><svg xmlns="http://www.w3.org/2000/svg" x="9" y="138.746" width="7.626" height="7.626" viewBox="72.32 -782.68 855.36 813.36"><path fill="#132532" transform="scale(1,-1)" d="M499.0 751.0 L632.0 514.0 L896.0 464.0 L708.0 263.0 L744.0 1.0 L499.0 122.0 L255.0 1.0 L291.0 263.0 L104.0 464.0 L367.0 514.0 Z "/></svg></g><text x="21.741000000000003" y="146.0" font-family="Avenir Next" font-size="9.3" font-weight="400" fill="#132532" font-style="normal">As</text><text x="34.705200000000005" y="146.0" font-family="Avenir Next" font-size="9.3" font-weight="400" fill="#132532" font-style="normal">an</text><text x="47.39970000000001" y="146.0" font-family="Avenir Next" font-size="9.3" font-weight="400" fill="#132532" font-style="normal">additional</text><text x="92.53260000000002" y="146.0" font-family="Avenir Next" font-size="9.3" font-weight="400" fill="#132532" font-style="normal">cost</text><text x="112.26720000000002" y="146.0" font-family="Avenir Next" font-size="9.3" font-weight="400" fill="#132532" font-style="normal">for</text><text x="126.36600000000003" y="146.0" font-family="Avenir Next" font-size="9.3" font-weight="400" fill="#132532" font-style="normal">Wonder</text><text x="9" y="156.7" font-family="Avenir Next" font-size="9.3" font-weight="400" fill="#132532" font-style="normal">Man</text><text x="29.934300000000004" y="156.7" font-family="Avenir Next" font-size="9.3" font-weight="400" fill="#132532" font-style="normal">to</text><text x="40.889700000000005" y="156.7" font-family="Avenir Next" font-size="9.3" font-weight="400" fill="#132532" font-style="normal">attack,</text><text x="70.85430000000001" y="156.7" font-family="Avenir Next" font-size="9.3" font-weight="400" fill="#132532" font-style="normal">you</text><text x="88.80330000000001" y="156.7" font-family="Avenir Next" font-size="9.3" font-weight="400" fill="#132532" font-style="normal">must</text><text x="111.8208" y="156.7" font-family="Avenir Next" font-size="9.3" font-weight="400" fill="#132532" font-style="normal">discard</text><text x="145.4124" y="156.7" font-family="Avenir Next" font-size="9.3" font-weight="400" fill="#132532" font-style="normal">1</text><text x="9" y="167.4" font-family="Avenir Next" font-size="9.3" font-weight="400" fill="#132532" font-style="normal">card</text><text x="30.2133" y="167.4" font-family="Avenir Next" font-size="9.3" font-weight="400" fill="#132532" font-style="normal">from</text><text x="52.524" y="167.4" font-family="Avenir Next" font-size="9.3" font-weight="400" fill="#132532" font-style="normal">your</text><text x="73.82100000000001" y="167.4" font-family="Avenir Next" font-size="9.3" font-weight="400" fill="#132532" font-style="normal">hand.</text><svg xmlns="http://www.w3.org/2000/svg" x="9" y="214" width="17" height="17" viewBox="95.0211 -627.979 809.432 655.958"><desc>[physical]</desc><!-- Glyph P from the repository-pinned ChampionsIcons.ttf. --><path fill="#C13547" transform="scale(1,-1)" d="M861 398Q877 380 874 354Q872 338 868 322Q865 305 860 292Q854 279 840.0 272.0Q826 265 811 264H806Q794 264 783.0 272.0Q772 280 770 293Q763 329 741 366Q719 401 694 431Q669 460 650 479Q633 495 628 500Q644 488 661.5 465.0Q679 442 695.0 414.0Q711 386 725 355Q738 323 745 295Q749 281 738.5 268.0Q728 255 714 246Q709 244 707 243Q699 240 688 240Q674 240 662 250Q649 261 639 273Q624 308 603 342Q582 378 561 407Q540 437 525 456Q509 476 507 480Q557 402 584 329Q610 257 623 202Q627 189 620 175Q612 164 597 157L583 152Q577 148 573 148Q550 148 536.5 162.5Q523 177 522 195Q519 229 502 263Q485 298 466 327Q446 357 429 376Q410 399 409 401V400Q444 334 460.0 284.0Q476 234 482 199Q487 165 484 128L684 126L675 146L672 159L675 168Q681 184 694.5 197.5Q708 211 723 221Q738 231 751 238Q764 244 769 246L772 254L797 256H800Q807 256 816 250Q825 242 830 238Q845 226 845 209Q845 201 843 185Q842 170 836.5 154.5Q831 139 820.5 125.5Q810 112 792 106Q788 105 772 98Q757 91 733 82Q707 72 678 62Q648 52 615 43Q584 35 551 29Q520 23 493 23Q474 23 455.0 26.5Q436 30 424 37Q410 27 382 14Q354 2 314 2Q295 2 272 8Q249 14 225 32Q200 50 176 82Q151 114 127 166L125 173L127 181Q132 193 141 215Q152 242 169 275Q186 311 209 349Q232 388 260 423Q288 457 319 482Q351 506 385 512Q390 519 399 530Q408 541 421.0 552.0Q434 563 450 570Q467 578 488 578Q493 578 499 578Q503 577 509 576Q518 583 534.5 590.5Q551 598 574 598Q584 598 596.5 593.5Q609 589 620 576Q627 580 640 583Q652 587 666 587Q677 587 692.5 581.0Q708 575 720 554ZM334 113Q338 113 341 116Q348 119 352.0 132.0Q356 145 353 172Q350 199 340 238Q329 280 307 336Q317 289 321 246Q324 204 322 174Q320 161 315 148Q310 136 302 130Q305 127 315 120Q325 113 334 113Z"/></svg>
<rect x="78" y="210" width="87" height="24" rx="2" fill="#132532" stroke="none" stroke-width="1"/><g transform="translate(85 217) scale(0.55)"><path d="M10 18C7 15 0 10 1 5C2 0 7 0 10 4C13 0 18 0 19 5C20 10 13 15 10 18Z" fill="#FFFFFF" stroke="#FFFFFF" stroke-width="1.65" stroke-linecap="round" stroke-linejoin="round"/></g><text x="158" y="228" font-family="Avenir Next" font-size="18" font-weight="600" fill="#FFFFFF" text-anchor="end">3</text></g></g><text x="36" y="359" font-family="Avenir Next Condensed" font-size="17" font-weight="700" fill="#132532" >Wonder Man</text><g transform="translate(286 91)"><g><rect x="0" y="0" width="172" height="240" rx="3" fill="#FFFFFF" stroke="#132532" stroke-width="1"/><path d="M0 0H172V119L0 127Z" fill="#132532" stroke="none" stroke-width="1" /><path d="M43 57L172 28V100L81 120Z" fill="#704CAD" stroke="none" stroke-width="1" /><rect x="0" y="0" width="5" height="240" rx="0" fill="#704CAD" stroke="none" stroke-width="1"/><g transform="translate(99 44) scale(0.6083333333333333 0.5)"><path d="M26 48Q19 10 56 5Q99 0 103 40L89 79L109 99H72L59 77L45 99H9L30 72Z" fill="#FFFFFF" stroke="none" stroke-width="1" /><path d="M41 28H85L82 57L65 75L46 57ZM20 8L29 12L14 83L5 87ZM106 8L115 11L99 88L90 84Z" fill="#704CAD" stroke="none" stroke-width="1" /><path d="M44 42L60 46L50 51ZM81 42L66 46L76 51ZM53 61H72" fill="none" stroke="#FFFFFF" stroke-width="3" /></g><path d="M5 95H172V120L5 128Z" fill="#132532" stroke="none" stroke-width="1" /><g transform="translate(12 103) scale(0.55)"><path d="M3 3H16V12H3ZM5 6H13M5 9H10M12 15L18 20M16 14A4 4 0 1 0 8 14A4 4 0 1 0 16 14" fill="none" stroke="#FFFFFF" stroke-width="1.65" stroke-linecap="round" stroke-linejoin="round"/></g><text x="27" y="114" font-family="Avenir Next" font-size="16" font-weight="600" fill="#FFFFFF" >1</text><svg xmlns="http://www.w3.org/2000/svg" x="37.26" y="101" width="6.5" height="6.5" viewBox="72.32 -782.68 855.36 813.36"><path fill="#FFFFFF" transform="scale(1,-1)" d="M499.0 751.0 L632.0 514.0 L896.0 464.0 L708.0 263.0 L744.0 1.0 L499.0 122.0 L255.0 1.0 L291.0 263.0 L104.0 464.0 L367.0 514.0 Z "/></svg><g transform="translate(51 103) scale(0.55)"><path d="M5 18L17 6L18 1L13 2L2 13M4 11L10 17M2 19L5 16" fill="none" stroke="#FFFFFF" stroke-width="1.65" stroke-linecap="round" stroke-linejoin="round"/></g><text x="66" y="114" font-family="Avenir Next" font-size="16" font-weight="600" fill="#FFFFFF" >1</text><svg xmlns="http://www.w3.org/2000/svg" x="76.26" y="101" width="6.5" height="6.5" viewBox="72.32 -782.68 855.36 813.36"><path fill="#FFFFFF" transform="scale(1,-1)" d="M499.0 751.0 L632.0 514.0 L896.0 464.0 L708.0 263.0 L744.0 1.0 L499.0 122.0 L255.0 1.0 L291.0 263.0 L104.0 464.0 L367.0 514.0 Z "/></svg><g transform="translate(90 103) scale(0.55)"><path d="M3 2L10 0L17 2V10Q16 16 10 20Q4 16 3 10Z" fill="none" stroke="#FFFFFF" stroke-width="1.65" stroke-linecap="round" stroke-linejoin="round"/></g><text x="105" y="114" font-family="Avenir Next" font-size="16" font-weight="600" fill="#FFFFFF" >2</text><svg xmlns="http://www.w3.org/2000/svg" x="115.26" y="101" width="6.5" height="6.5" viewBox="72.32 -782.68 855.36 813.36"><path fill="#FFFFFF" transform="scale(1,-1)" d="M499.0 751.0 L632.0 514.0 L896.0 464.0 L708.0 263.0 L744.0 1.0 L499.0 122.0 L255.0 1.0 L291.0 263.0 L104.0 464.0 L367.0 514.0 Z "/></svg><g transform="translate(129 103) scale(0.55)"><path d="M2 5L8 3L11 17L5 19ZM7 2L14 1L17 16L11 17ZM12 2L18 3L19 16" fill="none" stroke="#FFFFFF" stroke-width="1.65" stroke-linecap="round" stroke-linejoin="round"/></g><text x="144" y="114" font-family="Avenir Next" font-size="16" font-weight="600" fill="#FFFFFF" >4</text><svg xmlns="http://www.w3.org/2000/svg" x="12" y="14" width="13" height="13" viewBox="19.12 -781.88 559.76 806.76"><path fill="#FFFFFF" transform="scale(1,-1)" d="M299.0 5.0 L234.0 304.0 L49.0 378.0 L234.0 453.0 L299.0 752.0 L364.0 453.0 L549.0 378.0 L364.0 304.0 Z "/></svg><text x="39" y="23" font-family="Avenir Next Condensed" font-size="17" font-weight="700" fill="#FFFFFF" >Psylocke</text><text x="39" y="37" font-family="Avenir Next" font-size="8" font-weight="500" fill="#FFFFFF" >Hero</text><g transform="translate(11 45) scale(0.6)"><path d="M1 14L6 5L10 12L14 5L19 14M4 18H16" fill="none" stroke="#FFFFFF" stroke-width="1.65" stroke-linecap="round" stroke-linejoin="round"/></g><text x="163" y="134" font-family="Avenir Next" font-size="7.5" font-weight="600" fill="#704CAD" text-anchor="end">Psionic · X-Force</text><g><desc>[star]</desc><svg xmlns="http://www.w3.org/2000/svg" x="9" y="138.746" width="7.626" height="7.626" viewBox="72.32 -782.68 855.36 813.36"><path fill="#132532" transform="scale(1,-1)" d="M499.0 751.0 L632.0 514.0 L896.0 464.0 L708.0 263.0 L744.0 1.0 L499.0 122.0 L255.0 1.0 L291.0 263.0 L104.0 464.0 L367.0 514.0 Z "/></svg></g><text x="21.741000000000003" y="146.0" font-family="Avenir Next" font-size="9.3" font-weight="400" fill="#132532" font-style="italic">Psi-Energy</text><text x="68.47350000000002" y="146.0" font-family="Avenir Next" font-size="9.3" font-weight="400" fill="#132532" font-style="italic">Control</text><text x="102.38130000000002" y="146.0" font-family="Avenir Next" font-size="9.3" font-weight="400" fill="#132532" font-style="normal">—</text><text x="110.28630000000003" y="146.0" font-family="Avenir Next" font-size="9.3" font-weight="600" fill="#132532" font-style="normal">Interrupt</text><text x="148.05360000000002" y="146.0" font-family="Avenir Next" font-size="9.3" font-weight="400" fill="#132532" font-style="normal">:</text><text x="9" y="156.7" font-family="Avenir Next" font-size="9.3" font-weight="400" fill="#132532" font-style="normal">When</text><text x="36.50940000000001" y="156.7" font-family="Avenir Next" font-size="9.3" font-weight="400" fill="#132532" font-style="normal">you</text><text x="54.45840000000001" y="156.7" font-family="Avenir Next" font-size="9.3" font-weight="400" fill="#132532" font-style="normal">use</text><text x="71.63550000000002" y="156.7" font-family="Avenir Next" font-size="9.3" font-weight="400" fill="#132532" font-style="normal">one</text><text x="90.36570000000002" y="156.7" font-family="Avenir Next" font-size="9.3" font-weight="400" fill="#132532" font-style="normal">of</text><text x="101.11650000000002" y="156.7" font-family="Avenir Next" font-size="9.3" font-weight="400" fill="#132532" font-style="normal">Psylocke&#x27;s</text><text x="9" y="167.4" font-family="Avenir Next" font-size="9.3" font-weight="400" fill="#132532" font-style="normal">basic</text><text x="33.319500000000005" y="167.4" font-family="Avenir Next" font-size="9.3" font-weight="400" fill="#132532" font-style="normal">powers</text><text x="66.96690000000001" y="167.4" font-family="Avenir Next" font-size="9.3" font-weight="400" fill="#132532" font-style="italic">(THW,</text><text x="95.09940000000002" y="167.4" font-family="Avenir Next" font-size="9.3" font-weight="400" fill="#132532" font-style="italic">ATK,</text><text x="116.83350000000002" y="167.4" font-family="Avenir Next" font-size="9.3" font-weight="400" fill="#132532" font-style="italic">or</text><text x="127.93770000000002" y="167.4" font-family="Avenir Next" font-size="9.3" font-weight="400" fill="#132532" font-style="italic">DEF)</text><text x="148.2768" y="167.4" font-family="Avenir Next" font-size="9.3" font-weight="400" fill="#132532" font-style="normal">,</text><text x="9" y="178.1" font-family="Avenir Next" font-size="9.3" font-weight="400" fill="#132532" font-style="normal">flip</text><text x="24.642599999999998" y="178.1" font-family="Avenir Next" font-size="9.3" font-weight="400" fill="#132532" font-style="normal">1</text><text x="32.3616" y="178.1" font-family="Avenir Next" font-size="9.3" font-weight="400" fill="#132532" font-style="normal">PSI-ENERGY</text><text x="87.25020000000002" y="178.1" font-family="Avenir Next" font-size="9.3" font-weight="400" fill="#132532" font-style="normal">upgrade.</text><rect x="78" y="210" width="87" height="24" rx="2" fill="#132532" stroke="none" stroke-width="1"/><g transform="translate(85 217) scale(0.55)"><path d="M10 18C7 15 0 10 1 5C2 0 7 0 10 4C13 0 18 0 19 5C20 10 13 15 10 18Z" fill="#FFFFFF" stroke="#FFFFFF" stroke-width="1.65" stroke-linecap="round" stroke-linejoin="round"/></g><text x="158" y="228" font-family="Avenir Next" font-size="18" font-weight="600" fill="#FFFFFF" text-anchor="end">10</text></g></g><text x="286" y="359" font-family="Avenir Next Condensed" font-size="17" font-weight="700" fill="#132532" >Psylocke</text><g transform="translate(536 91)"><g><rect x="0" y="0" width="172" height="240" rx="3" fill="#FFFFFF" stroke="#132532" stroke-width="1"/><path d="M0 0H172V119L0 127Z" fill="#132532" stroke="none" stroke-width="1" /><path d="M43 57L172 28V100L81 120Z" fill="#704CAD" stroke="none" stroke-width="1" /><rect x="0" y="0" width="5" height="240" rx="0" fill="#704CAD" stroke="none" stroke-width="1"/><g transform="translate(99 44) scale(0.6083333333333333 0.5)"><path d="M31 6H89L100 24L93 73L77 95H43L27 73L20 24Z" fill="#FFFFFF" stroke="none" stroke-width="1" /><path d="M35 15H85L85 50L76 64V82H44V64L35 50ZM33 40L54 43V51L36 49ZM87 40L66 43V51L84 49Z" fill="#704CAD" stroke="none" stroke-width="1" /><path d="M43 78H77M46 87H74" fill="none" stroke="#704CAD" stroke-width="3" /></g><path d="M5 95H172V120L5 128Z" fill="#132532" stroke="none" stroke-width="1" /><g transform="translate(12 103) scale(0.55)"><path d="M3 3H16V12H3ZM5 6H13M5 9H10M12 15L18 20M16 14A4 4 0 1 0 8 14A4 4 0 1 0 16 14" fill="none" stroke="#FFFFFF" stroke-width="1.65" stroke-linecap="round" stroke-linejoin="round"/></g><text x="27" y="114" font-family="Avenir Next" font-size="16" font-weight="600" fill="#FFFFFF" >2</text><g transform="translate(51 103) scale(0.55)"><path d="M5 18L17 6L18 1L13 2L2 13M4 11L10 17M2 19L5 16" fill="none" stroke="#FFFFFF" stroke-width="1.65" stroke-linecap="round" stroke-linejoin="round"/></g><text x="66" y="114" font-family="Avenir Next" font-size="16" font-weight="600" fill="#FFFFFF" >1</text><g transform="translate(90 103) scale(0.55)"><path d="M3 2L10 0L17 2V10Q16 16 10 20Q4 16 3 10Z" fill="none" stroke="#FFFFFF" stroke-width="1.65" stroke-linecap="round" stroke-linejoin="round"/></g><text x="105" y="114" font-family="Avenir Next" font-size="16" font-weight="600" fill="#FFFFFF" >1</text><g transform="translate(129 103) scale(0.55)"><path d="M2 5L8 3L11 17L5 19ZM7 2L14 1L17 16L11 17ZM12 2L18 3L19 16" fill="none" stroke="#FFFFFF" stroke-width="1.65" stroke-linecap="round" stroke-linejoin="round"/></g><text x="144" y="114" font-family="Avenir Next" font-size="16" font-weight="600" fill="#FFFFFF" >3</text><rect x="143" y="115.5" width="11.76" height="1.5" rx="0" fill="#E8C877" stroke="none" stroke-width="1"/><svg xmlns="http://www.w3.org/2000/svg" x="12" y="14" width="13" height="13" viewBox="19.12 -781.88 559.76 806.76"><path fill="#FFFFFF" transform="scale(1,-1)" d="M299.0 5.0 L234.0 304.0 L49.0 378.0 L234.0 453.0 L299.0 752.0 L364.0 453.0 L549.0 378.0 L364.0 304.0 Z "/></svg><text x="39" y="23" font-family="Avenir Next Condensed" font-size="17" font-weight="700" fill="#FFFFFF" >Iron Man</text><text x="39" y="37" font-family="Avenir Next" font-size="8" font-weight="500" fill="#FFFFFF" >Hero</text><g transform="translate(11 45) scale(0.6)"><path d="M1 14L6 5L10 12L14 5L19 14M4 18H16" fill="none" stroke="#FFFFFF" stroke-width="1.65" stroke-linecap="round" stroke-linejoin="round"/></g><text x="163" y="134" font-family="Avenir Next" font-size="7.5" font-weight="600" fill="#704CAD" text-anchor="end">Avenger</text><text x="9" y="146.0" font-family="Avenir Next" font-size="9.3" font-weight="400" fill="#132532" font-style="normal">You</text><text x="28.0092" y="146.0" font-family="Avenir Next" font-size="9.3" font-weight="400" fill="#132532" font-style="normal">get</text><text x="44.4795" y="146.0" font-family="Avenir Next" font-size="9.3" font-weight="400" fill="#132532" font-style="normal">+1</text><text x="58.392300000000006" y="146.0" font-family="Avenir Next" font-size="9.3" font-weight="400" fill="#132532" font-style="normal">hand</text><text x="82.43280000000001" y="146.0" font-family="Avenir Next" font-size="9.3" font-weight="400" fill="#132532" font-style="normal">size</text><text x="100.64220000000002" y="146.0" font-family="Avenir Next" font-size="9.3" font-weight="400" fill="#132532" font-style="normal">for</text><text x="114.74100000000003" y="146.0" font-family="Avenir Next" font-size="9.3" font-weight="400" fill="#132532" font-style="normal">each</text><text x="137.42370000000003" y="146.0" font-family="Avenir Next" font-size="9.3" font-weight="400" fill="#132532" font-style="normal">Tech</text><text x="9" y="156.7" font-family="Avenir Next" font-size="9.3" font-weight="400" fill="#132532" font-style="normal">upgrade</text><text x="48.069300000000005" y="156.7" font-family="Avenir Next" font-size="9.3" font-weight="400" fill="#132532" font-style="normal">you</text><text x="66.01830000000001" y="156.7" font-family="Avenir Next" font-size="9.3" font-weight="400" fill="#132532" font-style="normal">control</text><text x="98.40090000000002" y="156.7" font-family="Avenir Next" font-size="9.3" font-weight="400" fill="#132532" font-style="normal">(to</text><text x="112.14630000000002" y="156.7" font-family="Avenir Next" font-size="9.3" font-weight="400" fill="#132532" font-style="normal">a</text><text x="119.43750000000003" y="156.7" font-family="Avenir Next" font-size="9.3" font-weight="400" fill="#132532" font-style="normal">maximum</text><text x="9" y="167.4" font-family="Avenir Next" font-size="9.3" font-weight="400" fill="#132532" font-style="normal">hand</text><text x="33.0405" y="167.4" font-family="Avenir Next" font-size="9.3" font-weight="400" fill="#132532" font-style="normal">size</text><text x="51.24990000000001" y="167.4" font-family="Avenir Next" font-size="9.3" font-weight="400" fill="#132532" font-style="normal">of</text><text x="62.000700000000016" y="167.4" font-family="Avenir Next" font-size="9.3" font-weight="400" fill="#132532" font-style="normal">7).</text><rect x="78" y="210" width="87" height="24" rx="2" fill="#132532" stroke="none" stroke-width="1"/><g transform="translate(85 217) scale(0.55)"><path d="M10 18C7 15 0 10 1 5C2 0 7 0 10 4C13 0 18 0 19 5C20 10 13 15 10 18Z" fill="#FFFFFF" stroke="#FFFFFF" stroke-width="1.65" stroke-linecap="round" stroke-linejoin="round"/></g><text x="158" y="228" font-family="Avenir Next" font-size="18" font-weight="600" fill="#FFFFFF" text-anchor="end">9</text></g></g><text x="536" y="359" font-family="Avenir Next Condensed" font-size="17" font-weight="700" fill="#132532" >Iron Man</text><text x="36" y="384" font-family="Avenir Next" font-size="11" font-weight="400" fill="#132532" >Printed ATK star + 1 consequence</text><text x="286" y="384" font-family="Avenir Next" font-size="11" font-weight="400" fill="#132532" >Printed THW / ATK / DEF stars</text><text x="536" y="384" font-family="Avenir Next" font-size="11" font-weight="400" fill="#132532" >Live Hand 3; printed 1, no star</text><text x="36" y="425" font-family="Avenir Next" font-size="11" font-weight="400" fill="#67838E" >Wonder Man and Psylocke are research-only visual stress examples; they do not expand executable content.</text></svg>