<svg xmlns="http://www.w3.org/2000/svg" width="344" height="200" viewBox="0 0 344 200"><rect x="0" y="0" width="344" height="200" rx="0" fill="#E8EEF2" stroke="none" stroke-width="1"/><rect x="3" y="4" width="340" height="195" rx="3" fill="#C8D4DC" stroke="none" stroke-width="1"/><rect x="0" y="0" width="340" height="195" rx="3" fill="#FFFFFF" stroke="#132532" stroke-width="1"/><path d="M0 0H340V58L0 65Z" fill="#132532" stroke="none" stroke-width="1" /><rect x="0" y="0" width="4" height="195" rx="0" fill="#BA3B45" stroke="none" stroke-width="1"/><g transform="translate(13 13) scale(0.6)"><path d="M1 17L10 2L19 17H14L10 10L6 17Z" fill="#FFFFFF" stroke="#FFFFFF" stroke-width="1.65" stroke-linecap="round" stroke-linejoin="round"/></g><text x="34" y="24" font-family="Avenir Next Condensed" font-size="20" font-weight="700" fill="#FFFFFF" >Charge</text><text x="34" y="45" font-family="Avenir Next" font-size="10" font-weight="400" fill="#FFFFFF" >Attachment</text><text x="13" y="83" font-family="Avenir Next" font-size="12" font-weight="400" fill="#132532" font-style="normal">Attach</text><text x="51.412" y="83" font-family="Avenir Next" font-size="12" font-weight="400" fill="#132532" font-style="normal">to</text><text x="65.548" y="83" font-family="Avenir Next" font-size="12" font-weight="400" fill="#132532" font-style="normal">Rhino.</text><g><desc>[star]</desc><svg xmlns="http://www.w3.org/2000/svg" x="13" y="89.64" width="9.84" height="9.84" viewBox="72.32 -782.68 855.36 813.36"><path fill="#132532" transform="scale(1,-1)" d="M499.0 751.0 L632.0 514.0 L896.0 464.0 L708.0 263.0 L744.0 1.0 L499.0 122.0 L255.0 1.0 L291.0 263.0 L104.0 464.0 L367.0 514.0 Z "/></svg></g><text x="29.44" y="99" font-family="Avenir Next" font-size="12" font-weight="600" fill="#132532" font-style="normal">Forced</text><text x="71.35600000000001" y="99" font-family="Avenir Next" font-size="12" font-weight="600" fill="#132532" font-style="normal">Interrupt</text><text x="120.08800000000001" y="99" font-family="Avenir Next" font-size="12" font-weight="400" fill="#132532" font-style="normal">:</text><text x="126.688" y="99" font-family="Avenir Next" font-size="12" font-weight="400" fill="#132532" font-style="normal">When</text><text x="162.184" y="99" font-family="Avenir Next" font-size="12" font-weight="400" fill="#132532" font-style="normal">Rhino</text><text x="196.672" y="99" font-family="Avenir Next" font-size="12" font-weight="400" fill="#132532" font-style="normal">attacks,</text><text x="240.664" y="99" font-family="Avenir Next" font-size="12" font-weight="400" fill="#132532" font-style="normal">the</text><text x="261.328" y="99" font-family="Avenir Next" font-size="12" font-weight="400" fill="#132532" font-style="normal">attack</text><text x="296.87199999999996" y="99" font-family="Avenir Next" font-size="12" font-weight="400" fill="#132532" font-style="normal">gains</text><text x="13" y="115" font-family="Avenir Next" font-size="12" font-weight="400" fill="#132532" font-style="normal">overkill.</text><text x="58.660000000000004" y="115" font-family="Avenir Next" font-size="12" font-weight="400" fill="#132532" font-style="italic">(Excess</text><text x="101.368" y="115" font-family="Avenir Next" font-size="12" font-weight="400" fill="#132532" font-style="italic">damage</text><text x="149.452" y="115" font-family="Avenir Next" font-size="12" font-weight="400" fill="#132532" font-style="italic">to</text><text x="163.288" y="115" font-family="Avenir Next" font-size="12" font-weight="400" fill="#132532" font-style="italic">an</text><text x="179.62" y="115" font-family="Avenir Next" font-size="12" font-weight="400" fill="#132532" font-style="italic">ally</text><text x="200.872" y="115" font-family="Avenir Next" font-size="12" font-weight="400" fill="#132532" font-style="italic">from</text><text x="229.228" y="115" font-family="Avenir Next" font-size="12" font-weight="400" fill="#132532" font-style="italic">this</text><text x="251.16400000000002" y="115" font-family="Avenir Next" font-size="12" font-weight="400" fill="#132532" font-style="italic">attack</text><text x="286.192" y="115" font-family="Avenir Next" font-size="12" font-weight="400" fill="#132532" font-style="italic">is</text><text x="297.52" y="115" font-family="Avenir Next" font-size="12" font-weight="400" fill="#132532" font-style="italic">dealt</text><text x="13" y="131" font-family="Avenir Next" font-size="12" font-weight="400" fill="#132532" font-style="italic">to</text><text x="26.836" y="131" font-family="Avenir Next" font-size="12" font-weight="400" fill="#132532" font-style="italic">that</text><text x="50.536" y="131" font-family="Avenir Next" font-size="12" font-weight="400" fill="#132532" font-style="italic">ally&#x27;s</text><text x="80.176" y="131" font-family="Avenir Next" font-size="12" font-weight="400" fill="#132532" font-style="italic">controller.)</text><text x="142.0" y="131" font-family="Avenir Next" font-size="12" font-weight="400" fill="#132532" font-style="normal">At</text><text x="157.204" y="131" font-family="Avenir Next" font-size="12" font-weight="400" fill="#132532" font-style="normal">the</text><text x="177.868" y="131" font-family="Avenir Next" font-size="12" font-weight="400" fill="#132532" font-style="normal">end</text><text x="202.34799999999998" y="131" font-family="Avenir Next" font-size="12" font-weight="400" fill="#132532" font-style="normal">of</text><text x="216.21999999999997" y="131" font-family="Avenir Next" font-size="12" font-weight="400" fill="#132532" font-style="normal">this</text><text x="238.34799999999996" y="131" font-family="Avenir Next" font-size="12" font-weight="400" fill="#132532" font-style="normal">attack,</text><text x="277.01199999999994" y="131" font-family="Avenir Next" font-size="12" font-weight="400" fill="#132532" font-style="normal">discard</text><text x="13" y="147" font-family="Avenir Next" font-size="12" font-weight="400" fill="#132532" font-style="normal">Charge.</text><g transform="translate(274 34.34) scale(0.65)"><path d="M5 18L17 6L18 1L13 2L2 13M4 11L10 17M2 19L5 16" fill="none" stroke="#FFFFFF" stroke-width="1.65" stroke-linecap="round" stroke-linejoin="round"/></g><text x="290" y="45" font-family="Avenir Next" font-size="13" font-weight="500" fill="#FFFFFF" >+3</text></svg>