<svg xmlns="http://www.w3.org/2000/svg" width="344" height="152" viewBox="0 0 344 152"><rect x="0" y="0" width="344" height="152" rx="0" fill="#E8EEF2" stroke="none" stroke-width="1"/><rect x="3" y="4" width="340" height="147" rx="3" fill="#C8D4DC" stroke="none" stroke-width="1"/><rect x="0" y="0" width="340" height="147" rx="3" fill="#FFFFFF" stroke="#132532" stroke-width="1"/><path d="M0 0H340V58L0 65Z" fill="#132532" stroke="none" stroke-width="1" /><rect x="0" y="0" width="4" height="147" rx="0" fill="#2568A1" stroke="none" stroke-width="1"/><g transform="translate(13 13) scale(0.6)"><path d="M10 0A4 4 0 1 1 9.9 0M3 20V12Q10 7 17 12V20" fill="none" stroke="#FFFFFF" stroke-width="1.65" stroke-linecap="round" stroke-linejoin="round"/></g><text x="46" y="24" font-family="Avenir Next Condensed" font-size="20" font-weight="700" fill="#FFFFFF" >Inspired</text><text x="34" y="45" font-family="Avenir Next" font-size="10" font-weight="400" fill="#FFFFFF" >Upgrade</text><text x="13" y="83" font-family="Avenir Next" font-size="12" font-weight="400" fill="#132532" font-style="normal">Attach</text><text x="51.412" y="83" font-family="Avenir Next" font-size="12" font-weight="400" fill="#132532" font-style="normal">to</text><text x="65.548" y="83" font-family="Avenir Next" font-size="12" font-weight="400" fill="#132532" font-style="normal">an</text><text x="81.928" y="83" font-family="Avenir Next" font-size="12" font-weight="400" fill="#132532" font-style="normal">ally.</text><text x="106.36" y="83" font-family="Avenir Next" font-size="12" font-weight="400" fill="#132532" font-style="normal">Max</text><text x="132.208" y="83" font-family="Avenir Next" font-size="12" font-weight="400" fill="#132532" font-style="normal">1</text><text x="142.168" y="83" font-family="Avenir Next" font-size="12" font-weight="400" fill="#132532" font-style="normal">per</text><text x="163.972" y="83" font-family="Avenir Next" font-size="12" font-weight="400" fill="#132532" font-style="normal">ally.</text><text x="13" y="99" font-family="Avenir Next" font-size="12" font-weight="400" fill="#132532" font-style="normal">Attached</text><text x="65.92" y="99" font-family="Avenir Next" font-size="12" font-weight="400" fill="#132532" font-style="normal">ally</text><text x="87.232" y="99" font-family="Avenir Next" font-size="12" font-weight="400" fill="#132532" font-style="normal">gets</text><text x="113.812" y="99" font-family="Avenir Next" font-size="12" font-weight="400" fill="#132532" font-style="normal">+1</text><text x="131.764" y="99" font-family="Avenir Next" font-size="12" font-weight="400" fill="#132532" font-style="normal">THW</text><text x="161.88400000000001" y="99" font-family="Avenir Next" font-size="12" font-weight="400" fill="#132532" font-style="normal">and</text><text x="185.90800000000002" y="99" font-family="Avenir Next" font-size="12" font-weight="400" fill="#132532" font-style="normal">+1</text><text x="203.86" y="99" font-family="Avenir Next" font-size="12" font-weight="400" fill="#132532" font-style="normal">ATK.</text><svg xmlns="http://www.w3.org/2000/svg" x="13" y="122" width="16" height="16" viewBox="95.0211 -627.979 809.432 655.958"><desc>[physical]</desc><!-- Glyph P from the repository-pinned ChampionsIcons.ttf. --><path fill="#C13547" transform="scale(1,-1)" d="M861 398Q877 380 874 354Q872 338 868 322Q865 305 860 292Q854 279 840.0 272.0Q826 265 811 264H806Q794 264 783.0 272.0Q772 280 770 293Q763 329 741 366Q719 401 694 431Q669 460 650 479Q633 495 628 500Q644 488 661.5 465.0Q679 442 695.0 414.0Q711 386 725 355Q738 323 745 295Q749 281 738.5 268.0Q728 255 714 246Q709 244 707 243Q699 240 688 240Q674 240 662 250Q649 261 639 273Q624 308 603 342Q582 378 561 407Q540 437 525 456Q509 476 507 480Q557 402 584 329Q610 257 623 202Q627 189 620 175Q612 164 597 157L583 152Q577 148 573 148Q550 148 536.5 162.5Q523 177 522 195Q519 229 502 263Q485 298 466 327Q446 357 429 376Q410 399 409 401V400Q444 334 460.0 284.0Q476 234 482 199Q487 165 484 128L684 126L675 146L672 159L675 168Q681 184 694.5 197.5Q708 211 723 221Q738 231 751 238Q764 244 769 246L772 254L797 256H800Q807 256 816 250Q825 242 830 238Q845 226 845 209Q845 201 843 185Q842 170 836.5 154.5Q831 139 820.5 125.5Q810 112 792 106Q788 105 772 98Q757 91 733 82Q707 72 678 62Q648 52 615 43Q584 35 551 29Q520 23 493 23Q474 23 455.0 26.5Q436 30 424 37Q410 27 382 14Q354 2 314 2Q295 2 272 8Q249 14 225 32Q200 50 176 82Q151 114 127 166L125 173L127 181Q132 193 141 215Q152 242 169 275Q186 311 209 349Q232 388 260 423Q288 457 319 482Q351 506 385 512Q390 519 399 530Q408 541 421.0 552.0Q434 563 450 570Q467 578 488 578Q493 578 499 578Q503 577 509 576Q518 583 534.5 590.5Q551 598 574 598Q584 598 596.5 593.5Q609 589 620 576Q627 580 640 583Q652 587 666 587Q677 587 692.5 581.0Q708 575 720 554ZM334 113Q338 113 341 116Q348 119 352.0 132.0Q356 145 353 172Q350 199 340 238Q329 280 307 336Q317 289 321 246Q324 204 322 174Q320 161 315 148Q310 136 302 130Q305 127 315 120Q325 113 334 113Z"/></svg>
<rect x="10" y="9" width="22" height="27" rx="0" fill="#2568A1" stroke="none" stroke-width="1"/><text x="21" y="30" font-family="Avenir Next" font-size="19" font-weight="600" fill="#FFFFFF" text-anchor="middle">1</text></svg>