<svg xmlns="http://www.w3.org/2000/svg" width="344" height="184" viewBox="0 0 344 184"><rect x="0" y="0" width="344" height="184" rx="0" fill="#E8EEF2" stroke="none" stroke-width="1"/><rect x="3" y="4" width="340" height="179" rx="3" fill="#C8D4DC" stroke="none" stroke-width="1"/><rect x="0" y="0" width="340" height="179" rx="3" fill="#FFFFFF" stroke="#132532" stroke-width="1"/><path d="M0 0H340V58L0 65Z" fill="#132532" stroke="none" stroke-width="1" /><rect x="0" y="0" width="4" height="179" rx="0" fill="#BA3B45" stroke="none" stroke-width="1"/><g transform="translate(13 13) scale(0.6)"><path d="M1 17L10 2L19 17H14L10 10L6 17Z" fill="#FFFFFF" stroke="#FFFFFF" stroke-width="1.65" stroke-linecap="round" stroke-linejoin="round"/></g><text x="34" y="24" font-family="Avenir Next Condensed" font-size="20" font-weight="700" fill="#FFFFFF" >Concussion Blasters</text><text x="34" y="45" font-family="Avenir Next" font-size="10" font-weight="400" fill="#FFFFFF" >Attachment</text><text x="13" y="83" font-family="Avenir Next" font-size="12" font-weight="400" fill="#132532" font-style="normal">Attach</text><text x="51.412" y="83" font-family="Avenir Next" font-size="12" font-weight="400" fill="#132532" font-style="normal">to</text><text x="65.548" y="83" font-family="Avenir Next" font-size="12" font-weight="400" fill="#132532" font-style="normal">the</text><text x="86.212" y="83" font-family="Avenir Next" font-size="12" font-weight="400" fill="#132532" font-style="normal">villain.</text><text x="13" y="99" font-family="Avenir Next" font-size="12" font-weight="400" fill="#132532" font-style="normal">The</text><text x="36.7" y="99" font-family="Avenir Next" font-size="12" font-weight="400" fill="#132532" font-style="normal">villain</text><text x="70.98400000000001" y="99" font-family="Avenir Next" font-size="12" font-weight="400" fill="#132532" font-style="normal">gains</text><text x="103.27600000000001" y="99" font-family="Avenir Next" font-size="12" font-weight="400" fill="#132532" font-style="normal">retaliate</text><text x="150.77200000000002" y="99" font-family="Avenir Next" font-size="12" font-weight="400" fill="#132532" font-style="normal">1.</text><text x="13" y="115" font-family="Avenir Next" font-size="12" font-weight="600" fill="#132532" font-style="normal">Hero</text><text x="43.444" y="115" font-family="Avenir Next" font-size="12" font-weight="600" fill="#132532" font-style="normal">Action</text><text x="79.37200000000001" y="115" font-family="Avenir Next" font-size="12" font-weight="400" fill="#132532" font-style="normal">:</text><text x="85.97200000000001" y="115" font-family="Avenir Next" font-size="12" font-weight="400" fill="#132532" font-style="normal">Exhaust</text><text x="131.392" y="115" font-family="Avenir Next" font-size="12" font-weight="400" fill="#132532" font-style="normal">your</text><text x="158.87199999999999" y="115" font-family="Avenir Next" font-size="12" font-weight="400" fill="#132532" font-style="normal">hero</text><text x="187.384" y="115" font-family="Avenir Next" font-size="12" font-weight="400" fill="#132532" font-style="normal">and</text><text x="211.408" y="115" font-family="Avenir Next" font-size="12" font-weight="400" fill="#132532" font-style="normal">spend</text><svg xmlns="http://www.w3.org/2000/svg" x="248.83599999999998" y="104.0" width="12" height="12" viewBox="92.16 -729.84 813.68 859.68"><desc>[energy]</desc><!-- Glyph E from the repository-pinned ChampionsIcons.ttf. --><path fill="#D8AC1A" transform="scale(1,-1)" d="M831 13 124 -98 284 340 347 157 548 340 388 434 865 698 674 471 874 372 515 66Z"/></svg>
<svg xmlns="http://www.w3.org/2000/svg" x="264.436" y="104.0" width="12" height="12" viewBox="92.16 -729.84 813.68 859.68"><desc>[energy]</desc><!-- Glyph E from the repository-pinned ChampionsIcons.ttf. --><path fill="#D8AC1A" transform="scale(1,-1)" d="M831 13 124 -98 284 340 347 157 548 340 388 434 865 698 674 471 874 372 515 66Z"/></svg>
<text x="13" y="131" font-family="Avenir Next" font-size="12" font-weight="400" fill="#132532" font-style="normal">resources</text><text x="69.328" y="131" font-family="Avenir Next" font-size="12" font-weight="400" fill="#132532" font-style="normal">→</text><text x="78.47200000000001" y="131" font-family="Avenir Next" font-size="12" font-weight="400" fill="#132532" font-style="normal">discard</text><text x="121.816" y="131" font-family="Avenir Next" font-size="12" font-weight="400" fill="#132532" font-style="normal">this</text><text x="143.94400000000002" y="131" font-family="Avenir Next" font-size="12" font-weight="400" fill="#132532" font-style="normal">card.</text><g transform="translate(274 34.34) scale(0.65)"><path d="M5 18L17 6L18 1L13 2L2 13M4 11L10 17M2 19L5 16" fill="none" stroke="#FFFFFF" stroke-width="1.65" stroke-linecap="round" stroke-linejoin="round"/></g><text x="290" y="45" font-family="Avenir Next" font-size="13" font-weight="500" fill="#FFFFFF" >+1</text></svg>