<svg xmlns="http://www.w3.org/2000/svg" width="344" height="136" viewBox="0 0 344 136"><rect x="0" y="0" width="344" height="136" rx="0" fill="#E8EEF2" stroke="none" stroke-width="1"/><rect x="3" y="4" width="340" height="131" rx="3" fill="#C8D4DC" stroke="none" stroke-width="1"/><rect x="0" y="0" width="340" height="131" rx="3" fill="#FFFFFF" stroke="#132532" stroke-width="1"/><path d="M0 0H340V58L0 65Z" fill="#132532" stroke="none" stroke-width="1" /><rect x="0" y="0" width="4" height="131" rx="0" fill="#704CAD" stroke="none" stroke-width="1"/><g transform="translate(13 13) scale(0.6)"><path d="M1 14L6 5L10 12L14 5L19 14M4 18H16" fill="none" stroke="#FFFFFF" stroke-width="1.65" stroke-linecap="round" stroke-linejoin="round"/></g><text x="46" y="24" font-family="Avenir Next Condensed" font-size="20" font-weight="700" fill="#FFFFFF" >Arc Reactor</text><text x="34" y="45" font-family="Avenir Next" font-size="10" font-weight="400" fill="#FFFFFF" >Upgrade</text><text x="13" y="83" font-family="Avenir Next" font-size="12" font-weight="600" fill="#132532" font-style="normal">Hero</text><text x="43.444" y="83" font-family="Avenir Next" font-size="12" font-weight="600" fill="#132532" font-style="normal">Action</text><text x="79.37200000000001" y="83" font-family="Avenir Next" font-size="12" font-weight="400" fill="#132532" font-style="normal">:</text><text x="85.97200000000001" y="83" font-family="Avenir Next" font-size="12" font-weight="400" fill="#132532" font-style="normal">Exhaust</text><text x="131.392" y="83" font-family="Avenir Next" font-size="12" font-weight="400" fill="#132532" font-style="normal">Arc</text><text x="153.112" y="83" font-family="Avenir Next" font-size="12" font-weight="400" fill="#132532" font-style="normal">Reactor</text><text x="198.028" y="83" font-family="Avenir Next" font-size="12" font-weight="400" fill="#132532" font-style="normal">→</text><text x="207.172" y="83" font-family="Avenir Next" font-size="12" font-weight="400" fill="#132532" font-style="normal">ready</text><text x="241.264" y="83" font-family="Avenir Next" font-size="12" font-weight="400" fill="#132532" font-style="normal">Iron</text><text x="266.00800000000004" y="83" font-family="Avenir Next" font-size="12" font-weight="400" fill="#132532" font-style="normal">Man.</text><svg xmlns="http://www.w3.org/2000/svg" x="13" y="106" width="16" height="16" viewBox="92.16 -729.84 813.68 859.68"><desc>[energy]</desc><!-- Glyph E from the repository-pinned ChampionsIcons.ttf. --><path fill="#D8AC1A" transform="scale(1,-1)" d="M831 13 124 -98 284 340 347 157 548 340 388 434 865 698 674 471 874 372 515 66Z"/></svg>
<rect x="10" y="9" width="22" height="27" rx="0" fill="#704CAD" stroke="none" stroke-width="1"/><text x="21" y="30" font-family="Avenir Next" font-size="19" font-weight="600" fill="#FFFFFF" text-anchor="middle">2</text></svg>