<svg xmlns="http://www.w3.org/2000/svg" width="172" height="240" viewBox="0 0 172 240"><rect x="0" y="0" width="172" height="240" rx="0" fill="#E8EEF2" stroke="none" stroke-width="1"/><g transform="translate(0 0)"><g><rect x="0" y="0" width="172" height="240" rx="3" fill="#FFFFFF" stroke="#132532" stroke-width="1"/><path d="M0 0H172V119L0 127Z" fill="#132532" stroke="none" stroke-width="1" /><path d="M43 57L172 28V100L81 120Z" fill="#BA3B45" stroke="none" stroke-width="1" /><rect x="0" y="0" width="5" height="240" rx="0" fill="#BA3B45" stroke="none" stroke-width="1"/><g transform="translate(99 44) scale(0.6083333333333333 0.5)"><path d="M28 22L46 9H79L97 31L94 73L73 98H41L22 72Z" fill="#FFFFFF" stroke="none" stroke-width="1" /><path d="M60 1L75 38L44 38ZM29 45L50 50L42 57ZM92 45L71 50L79 57ZM42 72H80L70 85H51Z" fill="#BA3B45" stroke="none" stroke-width="1" /></g><path d="M5 95H172V120L5 128Z" fill="#132532" stroke="none" stroke-width="1" /><g transform="translate(12 103) scale(0.55)"><path d="M1 4H19V17H1ZM5 1V7M15 1V7M5 11H8M12 11H15" fill="none" stroke="#FFFFFF" stroke-width="1.65" stroke-linecap="round" stroke-linejoin="round"/></g><text x="27" y="114" font-family="Avenir Next" font-size="16" font-weight="600" fill="#FFFFFF" >1</text><g transform="translate(51 103) scale(0.55)"><path d="M5 18L17 6L18 1L13 2L2 13M4 11L10 17M2 19L5 16" fill="none" stroke="#FFFFFF" stroke-width="1.65" stroke-linecap="round" stroke-linejoin="round"/></g><text x="66" y="114" font-family="Avenir Next" font-size="16" font-weight="600" fill="#FFFFFF" >6</text><rect x="65" y="115.5" width="11.76" height="1.5" rx="0" fill="#E8C877" stroke="none" stroke-width="1"/><svg xmlns="http://www.w3.org/2000/svg" x="12" y="14" width="13" height="13" viewBox="19.12 -781.88 559.76 806.76"><path fill="#FFFFFF" transform="scale(1,-1)" d="M299.0 5.0 L234.0 304.0 L49.0 378.0 L234.0 453.0 L299.0 752.0 L364.0 453.0 L549.0 378.0 L364.0 304.0 Z "/></svg><text x="39" y="23" font-family="Avenir Next Condensed" font-size="17" font-weight="700" fill="#FFFFFF" >Rhino</text><text x="39" y="37" font-family="Avenir Next" font-size="8" font-weight="500" fill="#FFFFFF" >Villain I</text><g transform="translate(11 45) scale(0.6)"><path d="M1 17L10 2L19 17H14L10 10L6 17Z" fill="#FFFFFF" stroke="#FFFFFF" stroke-width="1.65" stroke-linecap="round" stroke-linejoin="round"/></g><text x="163" y="134" font-family="Avenir Next" font-size="7.5" font-weight="600" fill="#BA3B45" text-anchor="end">Brute · Criminal</text></g></g><rect x="85" y="214" width="80" height="23" rx="2" fill="#132532" stroke="none" stroke-width="1"/><g transform="translate(91 220) scale(0.55)"><path d="M10 18C7 15 0 10 1 5C2 0 7 0 10 4C13 0 18 0 19 5C20 10 13 15 10 18Z" fill="#FFFFFF" stroke="#FFFFFF" stroke-width="1.65" stroke-linecap="round" stroke-linejoin="round"/></g><text x="159" y="231" font-family="Avenir Next" font-size="16" font-weight="600" fill="#FFFFFF" text-anchor="end">10/14</text></svg>