<svg xmlns="http://www.w3.org/2000/svg" width="250" height="69" viewBox="0 0 250 69"><rect x="0" y="0" width="250" height="69" rx="0" fill="#E8EEF2" stroke="none" stroke-width="1"/><rect x="0" y="0" width="250" height="69" rx="0" fill="#FFFFFF" stroke="none" stroke-width="1"/><path d="M7 69L250 69" fill="none" stroke="#CDD7DE" stroke-width="0.7" /><rect x="0" y="0" width="3" height="69" rx="0" fill="#704CAD" stroke="none" stroke-width="1"/><g transform="translate(9 9) scale(0.5)"><path d="M1 14L6 5L10 12L14 5L19 14M4 18H16" fill="none" stroke="#132532" stroke-width="1.65" stroke-linecap="round" stroke-linejoin="round"/></g><text x="24" y="19" font-family="Avenir Next Condensed" font-size="14" font-weight="700" fill="#132532" >Mark V Armor</text><text x="13" y="39" font-family="Avenir Next" font-size="8.5" font-weight="500" fill="#506773" >Upgrade</text><g transform="translate(13 48.39) scale(0.525)"><path d="M10 18C7 15 0 10 1 5C2 0 7 0 10 4C13 0 18 0 19 5C20 10 13 15 10 18Z" fill="#132532" stroke="#132532" stroke-width="1.65" stroke-linecap="round" stroke-linejoin="round"/></g><text x="26.5" y="57" font-family="Avenir Next" font-size="10.5" font-weight="500" fill="#132532" >+6 max</text></svg>