<svg xmlns="http://www.w3.org/2000/svg" width="480" height="400" viewBox="0 0 120 100"><g transform="translate(0 0) scale(1.0 1.0)"><path d="M24 33L19 3L44 20L76 20L102 3L97 33L101 62L89 82L61 98L33 82L20 62Z" fill="#ffffff" stroke="none" stroke-width="1" /><path d="M60 28L53 65L60 72L67 65ZM28 43L50 48L43 57L31 52ZM92 43L70 48L77 57L89 52ZM39 74L60 82L81 74L70 87H50Z" fill="#132532" stroke="none" stroke-width="1" /><path d="M29 25L38 35M91 25L82 35M27 61L40 70M93 61L80 70" fill="none" stroke="#132532" stroke-width="2" /></g></svg>
