<svg xmlns="http://www.w3.org/2000/svg" width="32" height="32" viewBox="92.88 -733.12 813.24 867.24"><!-- Glyph M from the repository-pinned ChampionsIcons.ttf. --><path fill="#ffffff" transform="scale(1,-1)" d="M220 -92Q198 -83 184 -67Q168 -53 159 -31Q150 -10 150 14Q150 47 166 72Q182 99 210 114L227 364Q179 386 153 428Q125 471 125 524Q125 563 139 592Q153 626 176 649Q201 674 233 687Q264 701 302 701Q341 701 370 687Q402 674 427.0 649.0Q452 624 465 592Q479 563 479 524Q479 490 467 461L566 362Q590 375 613 380Q636 386 663 386Q698 386 733 374Q767 362 794 341Q820 321 840 290Q861 261 868 225Q874 201 874 174Q874 158 872 142Q867 104 844 64Q822 29 788 4Q755 -20 713 -31Q704 -33 688 -35Q680 -36 663 -36Q626 -36 592 -24Q559 -12 532 9Q504 31 485 60Q465 90 458 125Q451 149 451 175Q451 188 453 201Q459 239 477 274L383 367Q361 357 353 355L335 106Q356 90 368 65Q381 42 381 14Q381 -10 372 -31Q361 -53 347 -67Q331 -83 310 -92Q287 -102 266.0 -102.0Q245 -102 220 -92Z"/></svg>
